<svg width="77" height="77" viewBox="0 0 77 77" fill="none" xmlns="http://www.w3.org/2000/svg">
<path d="M21.539 71.7791C14.8147 69.6514 10.0457 66.6472 6.58642 62.1313C3.12714 57.6155 1.17189 51.7087 0.0188004 43.6361C-0.00626681 43.4963 -0.00626681 43.3502 0.0188004 43.2105C0.0188004 40.5874 0.933755 38.0532 2.60073 36.0525C3.85409 34.4964 5.64013 33.3849 8.04032 32.5211C8.20952 30.8507 8.91767 29.2882 10.0582 28.0751C11.3931 26.6905 13.1352 25.7696 15.0215 25.4584C17.4781 22.994 20.5927 21.3045 23.9768 20.5868C27.5865 19.7739 31.3466 20.0406 34.8121 21.349C35.0315 21.4379 35.7459 21.8 36.3914 22.1302C36.4791 22.1683 36.5543 22.2318 36.6107 22.3081C38.7226 20.6313 41.2669 19.5897 43.9366 19.3166C45.7164 19.1324 47.5212 19.2594 49.2571 19.704L57.7361 2.49806C58.5069 0.97372 59.7415 -0.487101 62.1229 0.694259C62.7621 1.00548 63.3073 1.48183 63.7021 2.07886C64.7926 3.76834 63.8776 4.94334 63.0755 6.39781L53.8758 21.8571C54.5651 22.3462 55.1981 22.9178 55.7558 23.5593L55.8248 23.6419C56.7084 24.6581 57.3476 25.8776 57.6735 27.1923C58.4756 27.4209 59.2464 27.6813 59.9734 27.9608L70.627 9.94824C71.5168 8.49377 72.8579 7.14093 75.1516 8.50648C75.7657 8.86851 76.2734 9.38932 76.618 10.0181C77.5643 11.7901 76.5679 12.8889 75.6279 14.2672L64.4918 30.3616C65.5258 31.0857 66.4721 31.9431 67.2993 32.9022C69.7057 35.5507 70.6834 39.2218 69.9251 42.7342C69.9 42.8358 69.8687 42.9374 69.8248 43.0327C69.8687 43.1724 69.8937 43.3121 69.8937 43.4582C69.8937 43.5154 69.8937 43.5725 69.8937 43.6297C69.6305 50.1145 67.2993 56.3388 63.2509 61.3692C59.566 65.8151 54.1828 69.5498 46.6376 71.8236H46.6V75.717C46.6 76.0155 46.3556 76.2632 46.0611 76.2632H22.2785C21.8962 76.2632 21.5892 75.952 21.5829 75.5645V71.7981H21.539V71.7791ZM51.5195 39.2536C50.7674 39.2536 50.1596 38.6375 50.1596 37.8753C50.1596 37.1132 50.7674 36.4971 51.5195 36.4971H54.7406C55.4926 36.4971 56.1005 37.1132 56.1005 37.8753C56.1005 38.6375 55.4926 39.2536 54.7406 39.2536H51.5195ZM50.7048 29.7265C51.3879 30.0377 51.6949 30.8443 51.3941 31.5366C51.087 32.2289 50.2912 32.5402 49.6018 32.2353L46.6627 30.8952C45.9796 30.5839 45.6725 29.7773 45.9733 29.085C46.2804 28.3927 47.0763 28.0815 47.7656 28.3864L50.7048 29.7265ZM34.4111 30.5458C33.7092 30.2918 33.3394 29.5105 33.5838 28.7928C33.8345 28.0815 34.6053 27.7067 35.3135 27.9545C35.3511 27.9672 35.3887 27.9862 35.4263 27.9989L38.6537 29.3327C39.3493 29.6058 39.694 30.3997 39.4245 31.1047C39.155 31.8098 38.3717 32.1591 37.6761 31.886C37.6635 31.8796 37.6447 31.8733 37.6322 31.8669L34.4111 30.5458ZM33.2329 39.2536C32.4809 39.2536 31.873 38.6375 31.873 37.8753C31.873 37.1132 32.4809 36.4971 33.2329 36.4971H36.454C37.2061 36.4971 37.8139 37.1132 37.8139 37.8753C37.8139 38.6375 37.2061 39.2536 36.454 39.2536H33.2329ZM22.266 32.6545C21.5766 32.9657 20.7682 32.6418 20.4611 31.9431C20.1541 31.2445 20.4737 30.4252 21.163 30.1139L24.1022 28.7738C24.7727 28.4308 25.5811 28.7039 25.9195 29.3835C26.2579 30.0631 25.9885 30.8825 25.3179 31.2254C25.2803 31.2445 25.2427 31.2635 25.1988 31.2762L22.266 32.6545ZM15.949 39.2536C15.197 39.2536 14.5891 38.6375 14.5891 37.8753C14.5891 37.1132 15.197 36.4971 15.949 36.4971H19.1764C19.9285 36.4971 20.5363 37.1132 20.5363 37.8753C20.5363 38.6375 19.9285 39.2536 19.1764 39.2536H15.949ZM3.24621 42.1816H67.2742C67.8382 39.514 67.0799 36.7321 65.2438 34.7377C63.3637 32.5211 60.2742 30.711 56.1506 29.6566C55.5929 29.5169 55.1855 29.0405 55.1229 28.4626C54.9913 27.3384 54.5213 26.284 53.7755 25.4393L53.7128 25.3758C52.6099 24.1627 51.2249 23.2544 49.677 22.74C47.9223 22.1239 46.0548 21.9079 44.2061 22.1048C41.831 22.3398 39.5812 23.3116 37.7763 24.8994C37.5257 25.1408 37.1873 25.2742 36.8426 25.2742C36.2472 25.1408 35.6832 24.9121 35.1631 24.5882C34.5928 24.3024 33.9661 23.9531 33.8345 23.9531C30.864 22.8289 27.6366 22.6066 24.5408 23.3179C21.5328 23.9531 18.7879 25.5028 16.6697 27.7639C16.4504 28.0116 16.1496 28.1704 15.8237 28.2022C14.3823 28.3546 13.0412 29.0024 12.0197 30.0441C11.1612 30.9587 10.6786 32.1718 10.6724 33.4357C10.7162 34.0709 10.3277 34.6552 9.72609 34.8457C7.36977 35.5888 5.70906 36.5034 4.67504 37.7864C3.74129 39.0567 3.24621 40.6001 3.24621 42.1816ZM60.6063 48.7235C60.7693 48.2154 61.3082 47.9423 61.8096 48.1074C62.3109 48.2726 62.5804 48.8188 62.4174 49.3269C62.4049 49.3777 62.3861 49.4222 62.361 49.4666C61.8973 50.6162 61.3834 51.7468 60.8069 52.8456C60.2366 53.938 59.6099 54.9987 58.9268 56.0213C58.6636 56.4849 58.0808 56.6437 57.6296 56.377C57.1721 56.1102 57.0154 55.5195 57.2787 55.0622C57.3037 55.0178 57.3288 54.9796 57.3601 54.9415C58.0119 53.9698 58.6135 52.9663 59.1587 51.931C59.7102 50.8957 60.2115 49.8414 60.6565 48.7553L60.6063 48.7235ZM55.361 57.571C55.7057 57.1645 56.3136 57.1201 56.7084 57.4757C57.1032 57.8314 57.1533 58.4412 56.8024 58.8413C56.2446 59.5145 55.6618 60.156 55.0727 60.7467C54.4837 61.3374 53.9071 61.8709 53.2804 62.3917C52.8731 62.7411 52.2652 62.6966 51.9205 62.2838C51.5759 61.8709 51.6197 61.2548 52.0271 60.9055C52.5973 60.4292 53.1614 59.9083 53.7128 59.3558C54.2643 58.8032 54.8158 58.1871 55.3297 57.571H55.361ZM8.5918 60.5625C11.6625 64.6147 16.0368 67.3331 22.197 69.2957H46.0924C52.9859 67.1807 57.9367 63.7827 61.2894 59.7114C64.7362 55.4497 66.8167 50.2161 67.2554 44.7221H2.76366C3.86662 51.5944 5.65893 56.7136 8.5918 60.5625Z" fill="#E1B168"/>
<path fill-rule="evenodd" clip-rule="evenodd" d="M38.8668 5.05767C39.0297 4.85442 39.2616 4.72104 39.5185 4.68929C39.788 4.65118 40.0637 4.7274 40.2768 4.90524C40.4773 5.07037 40.6089 5.30537 40.6403 5.56578C40.6779 5.83889 40.6027 6.11835 40.4335 6.3343C38.4469 8.86216 42.7083 11.5806 39.4934 15.5565C39.1488 15.9821 38.5284 16.0456 38.1085 15.6963C37.6949 15.3469 37.6385 14.7245 37.9706 14.299C40.4209 11.2693 36.0404 8.75418 38.8981 5.07672L38.8668 5.05767ZM29.4352 5.10213C29.5919 4.89253 29.8238 4.74645 30.0807 4.70834C30.3314 4.67659 30.582 4.7401 30.7888 4.89253C31.0019 5.04497 31.146 5.28632 31.1836 5.54673C31.215 5.80078 31.1523 6.05484 31.0019 6.26443C29.078 8.93202 32.694 11.5424 30.0995 15.4422C29.9491 15.6582 29.7235 15.8106 29.4728 15.855C29.2096 15.9186 28.9339 15.8614 28.7145 15.709C28.2633 15.4041 28.1442 14.7817 28.4451 14.3244C28.4451 14.3244 28.4451 14.3244 28.4451 14.318C30.5382 11.1804 26.6277 8.93837 29.3913 5.09578L29.4352 5.10213ZM34.1541 5.09578C34.3045 4.87983 34.5427 4.73375 34.7996 4.69564C35.326 4.60672 35.8274 4.96875 35.9151 5.50227C35.9151 5.50862 35.9151 5.51497 35.9214 5.52767C35.9715 5.79443 35.9088 6.07389 35.7459 6.29619C33.5776 9.3004 37.8202 11.4726 34.7933 15.493C34.6367 15.7026 34.3985 15.836 34.1416 15.8677C33.8721 15.9186 33.5964 15.8487 33.3833 15.6772C33.1765 15.5121 33.0449 15.2771 33.0073 15.0167C32.9634 14.7435 33.0386 14.4641 33.2016 14.2481C35.4764 11.2185 31.1837 9.15432 34.1103 5.02591L34.1541 5.09578Z" fill="#E1B168"/>
</svg>
