<svg width="378" height="99" viewBox="0 0 378 99" fill="none" xmlns="http://www.w3.org/2000/svg">
<g clip-path="url(#clip0_0_283)">
<path d="M214.264 5.64307L214.978 1.95532C214.983 1.92991 214.977 1.90366 214.963 1.88223C214.948 1.8608 214.926 1.8459 214.901 1.84074L211.405 1.1826C211.387 1.17957 211.37 1.1801 211.352 1.18414C211.335 1.18818 211.319 1.19566 211.305 1.20612C211.291 1.21657 211.279 1.2298 211.27 1.24499C211.261 1.26018 211.255 1.27703 211.253 1.29451C210.844 4.2202 210.187 6.98601 209.281 9.59195C208.807 10.9526 208.205 12.2405 207.475 13.4556C207.43 13.5284 207.44 13.5932 207.504 13.6501L210.243 16.1121C210.251 16.1193 210.26 16.1246 210.271 16.1277C210.281 16.1307 210.292 16.1313 210.302 16.1295C210.313 16.1277 210.323 16.1236 210.333 16.1173C210.342 16.1111 210.349 16.103 210.355 16.0935C211.488 14.1075 212.414 11.9385 213.131 9.58662C213.162 9.48537 213.23 9.43474 213.337 9.43474L217.477 9.4374C217.55 9.4374 217.574 9.47116 217.549 9.53866L216.404 12.6695C216.398 12.6847 216.395 12.7009 216.396 12.7172C216.396 12.7335 216.4 12.7494 216.407 12.7642C216.414 12.7789 216.424 12.792 216.436 12.8028C216.448 12.8135 216.463 12.8217 216.478 12.8267L219.303 13.746C219.333 13.7554 219.365 13.7536 219.394 13.7409C219.423 13.7281 219.446 13.7053 219.46 13.6767C220.522 11.3621 221.401 8.96933 222.098 6.4984C222.102 6.48366 222.103 6.46826 222.101 6.45312C222.099 6.43797 222.095 6.42339 222.087 6.41023C222.08 6.39707 222.07 6.38559 222.058 6.37648C222.046 6.36736 222.032 6.3608 222.018 6.35717C221.497 6.22927 220.965 6.07917 220.422 5.90686C219.995 5.77008 219.51 5.71501 218.967 5.74166C217.381 5.8216 215.849 5.83492 214.373 5.78163C214.283 5.77808 214.246 5.73189 214.264 5.64307Z" stroke="#8F87E4" stroke-width="0.532912"/>
<path d="M227.937 5.65905L228.587 1.90735C228.607 1.79011 228.558 1.72261 228.441 1.70484L224.852 1.18792C224.695 1.1666 224.608 1.2341 224.59 1.39042C224.253 4.54349 223.565 7.52158 222.525 10.3247C222.206 11.1845 221.658 12.2263 220.884 13.4502C220.829 13.5373 220.844 13.6101 220.929 13.6687L223.986 15.8137C224.071 15.8741 224.142 15.8608 224.199 15.7737C225.419 13.9192 226.301 11.6783 226.919 9.52799C226.951 9.42141 227.022 9.36812 227.132 9.36812L234.252 9.37078C234.36 9.37078 234.404 9.42318 234.383 9.52799C234.081 11.125 233.69 12.7139 233.21 14.2949C233.18 14.3979 233.216 14.4663 233.317 14.5001L236.33 15.4913C236.449 15.5304 236.53 15.4904 236.573 15.3714C237.578 12.5505 238.364 9.60704 238.931 6.54102C238.951 6.43799 238.91 6.37315 238.808 6.34651C238.077 6.16354 237.373 5.98235 236.698 5.80294C236.41 5.72655 236.036 5.70701 235.574 5.74432C235.22 5.77096 234.88 5.78517 234.553 5.78695C232.356 5.80471 230.189 5.80738 228.052 5.79494C227.959 5.79494 227.921 5.74965 227.937 5.65905Z" stroke="#8F87E4" stroke-width="0.532912"/>
<path d="M152.913 9.13623C152.901 9.13623 152.889 9.13382 152.877 9.12914C152.866 9.12445 152.856 9.11758 152.847 9.10892C152.838 9.10026 152.832 9.08998 152.827 9.07866C152.822 9.06735 152.82 9.05522 152.82 9.04298L152.817 1.78738C152.817 1.77513 152.815 1.763 152.81 1.75169C152.805 1.74037 152.798 1.73009 152.79 1.72143C152.781 1.71277 152.771 1.7059 152.76 1.70122C152.748 1.69653 152.736 1.69412 152.724 1.69412H148.732C148.72 1.69412 148.708 1.69653 148.697 1.70122C148.685 1.7059 148.675 1.71277 148.666 1.72143C148.658 1.73009 148.651 1.74037 148.646 1.75169C148.642 1.763 148.639 1.77513 148.639 1.78738L148.636 9.04564C148.636 9.07037 148.627 9.0941 148.609 9.11159C148.592 9.12908 148.568 9.1389 148.543 9.1389L144.131 9.13623C144.118 9.13623 144.106 9.13382 144.095 9.12914C144.084 9.12445 144.073 9.11758 144.065 9.10892C144.056 9.10026 144.049 9.08998 144.045 9.07866C144.04 9.06735 144.037 9.05522 144.037 9.04298V1.48095C144.037 1.45622 144.028 1.4325 144.01 1.41501C143.993 1.39752 143.969 1.3877 143.944 1.3877L140.187 1.39302C140.162 1.39302 140.139 1.40285 140.121 1.42034C140.104 1.43783 140.094 1.46155 140.094 1.48628V9.04564C140.094 9.05789 140.091 9.07002 140.087 9.08133C140.082 9.09264 140.075 9.10293 140.067 9.11159C140.058 9.12025 140.048 9.12711 140.036 9.1318C140.025 9.13649 140.013 9.1389 140.001 9.1389L135.649 9.13623C135.625 9.13623 135.601 9.12641 135.583 9.10892C135.566 9.09143 135.556 9.06771 135.556 9.04298V2.18706C135.556 2.16233 135.546 2.13861 135.529 2.12112C135.511 2.10363 135.488 2.0938 135.463 2.0938L131.509 2.08847C131.484 2.08847 131.46 2.0983 131.443 2.11579C131.425 2.13328 131.415 2.157 131.415 2.18173L131.418 9.04298C131.418 9.05522 131.416 9.06735 131.411 9.07866C131.406 9.08998 131.399 9.10026 131.391 9.10892C131.382 9.11758 131.372 9.12445 131.36 9.12914C131.349 9.13382 131.337 9.13623 131.325 9.13623L126.998 9.1389C126.985 9.1389 126.973 9.14131 126.962 9.146C126.951 9.15069 126.94 9.15756 126.932 9.16622C126.923 9.17488 126.916 9.18516 126.911 9.19647C126.907 9.20779 126.904 9.21991 126.904 9.23216V12.8799C126.904 12.9047 126.914 12.9284 126.932 12.9459C126.949 12.9634 126.973 12.9732 126.998 12.9732L131.322 12.9679C131.347 12.9679 131.371 12.9777 131.388 12.9952C131.406 13.0127 131.415 13.0364 131.415 13.0611V30.3994C131.415 30.4242 131.425 30.4479 131.443 30.4654C131.46 30.4829 131.484 30.4927 131.509 30.4927H156.262C156.287 30.4927 156.311 30.4829 156.328 30.4654C156.346 30.4479 156.356 30.4242 156.356 30.3994L156.358 26.749C156.358 26.7242 156.349 26.7005 156.331 26.683C156.314 26.6655 156.29 26.6557 156.265 26.6557H135.649C135.625 26.6557 135.601 26.6459 135.583 26.6284C135.566 26.6109 135.556 26.5872 135.556 26.5625V13.0665C135.556 13.0417 135.566 13.018 135.583 13.0005C135.601 12.983 135.625 12.9732 135.649 12.9732L140.001 12.9679C140.013 12.9679 140.025 12.9703 140.036 12.975C140.048 12.9797 140.058 12.9865 140.067 12.9952C140.075 13.0038 140.082 13.0141 140.087 13.0254C140.091 13.0368 140.094 13.0489 140.094 13.0611V22.7894C140.094 22.8142 140.104 22.8379 140.121 22.8554C140.139 22.8729 140.162 22.8827 140.187 22.8827L152.727 22.8854C152.751 22.8854 152.775 22.8755 152.793 22.858C152.81 22.8406 152.82 22.8168 152.82 22.7921V13.0638C152.82 13.0516 152.822 13.0394 152.827 13.0281C152.832 13.0168 152.838 13.0065 152.847 12.9979C152.856 12.9892 152.866 12.9823 152.877 12.9776C152.889 12.9729 152.901 12.9705 152.913 12.9705L157.123 12.9679C157.148 12.9679 157.172 12.958 157.189 12.9406C157.207 12.9231 157.216 12.8993 157.216 12.8746L157.224 9.23482C157.224 9.21009 157.215 9.18637 157.197 9.16888C157.18 9.15139 157.156 9.14156 157.131 9.14156L152.913 9.13623Z" stroke="#8F87E4" stroke-width="0.532912"/>
<path d="M177.369 20.4154C177.223 20.4171 177.207 20.3727 177.321 20.2821C178.722 19.1772 179.984 17.9284 181.104 16.5358C181.129 16.5058 181.159 16.4816 181.194 16.4651C181.228 16.4485 181.266 16.4398 181.304 16.4398H184.433C184.537 16.4398 184.622 16.4825 184.686 16.5677C185.743 17.9604 186.962 19.2065 188.344 20.3061C188.465 20.402 188.448 20.45 188.293 20.45L186.151 20.4447C186.057 20.4447 186.01 20.4917 186.01 20.5859V32.0408C186.01 32.1439 186.061 32.1954 186.164 32.1954L189.972 32.1981C189.995 32.1981 190.018 32.1935 190.039 32.1847C190.061 32.1758 190.08 32.1629 190.096 32.1465C190.113 32.1302 190.126 32.1108 190.135 32.0895C190.143 32.0682 190.148 32.0453 190.148 32.0222L190.151 21.8542C190.151 21.7192 190.207 21.6881 190.319 21.761C191.915 22.7735 193.69 23.6235 195.642 24.311C195.731 24.3429 195.801 24.3189 195.853 24.239C196.585 23.079 197.405 22.0212 198.315 21.0655C198.327 21.0534 198.335 21.0385 198.339 21.0222C198.343 21.0058 198.343 20.9887 198.338 20.9725C198.334 20.9563 198.325 20.9416 198.313 20.9299C198.301 20.9181 198.286 20.9098 198.27 20.9056C195.346 20.124 192.666 18.8824 190.231 17.1806C189.969 16.9976 189.72 16.804 189.482 16.5997C189.363 16.4967 189.382 16.4452 189.54 16.4452L194.577 16.4398C194.674 16.4398 194.723 16.3901 194.723 16.2906L194.726 2.4136C194.726 2.31235 194.675 2.26172 194.574 2.26172H171.014C170.989 2.26172 170.965 2.27126 170.948 2.28825C170.93 2.30524 170.921 2.32829 170.921 2.35231L170.923 16.2853C170.923 16.3883 170.974 16.4398 171.075 16.4398L175.973 16.4425C176.166 16.4425 176.187 16.502 176.036 16.621C173.425 18.6745 170.544 20.1756 167.393 21.1241C167.272 21.1597 167.255 21.2227 167.342 21.3133C168.253 22.2672 169.055 23.2753 169.748 24.3376C169.77 24.3709 169.803 24.3958 169.841 24.4083C169.879 24.4209 169.921 24.4204 169.959 24.4069C172.042 23.627 173.96 22.6492 175.711 21.4732C175.807 21.4075 175.861 21.4323 175.871 21.5478C176.049 23.6333 175.593 25.2773 174.504 26.4799C173.287 27.8308 171.477 28.7288 169.777 29.2724C169.764 29.2766 169.752 29.2843 169.742 29.2948C169.733 29.3052 169.726 29.318 169.723 29.3318C169.72 29.3456 169.721 29.3599 169.725 29.3734C169.73 29.3868 169.738 29.3988 169.748 29.4083C170.754 30.3409 171.611 31.3356 172.319 32.3926C172.373 32.4743 172.446 32.4983 172.538 32.4645C177.036 30.8285 180.076 27.6976 179.996 22.6456C179.984 21.967 179.992 21.2858 180.02 20.6019C180.025 20.474 179.964 20.41 179.836 20.41L177.369 20.4154Z" stroke="#8F87E4" stroke-width="0.532912"/>
<path d="M229.686 23.3757C229.722 23.2904 229.756 23.2913 229.79 23.3783C231.325 27.226 233.48 30.3861 237.171 32.3952C237.188 32.4045 237.208 32.4067 237.227 32.4012C237.246 32.3957 237.262 32.3831 237.272 32.3659C237.968 31.2219 238.776 30.1588 239.694 29.1764C239.701 29.1696 239.705 29.1614 239.708 29.1525C239.71 29.1435 239.711 29.1341 239.709 29.125C239.707 29.1159 239.703 29.1074 239.697 29.1001C239.691 29.0928 239.684 29.087 239.676 29.0832C234.973 26.9009 232.748 22.2806 231.533 17.3218C231.364 16.6343 231.303 15.93 231.351 15.2088C231.428 14.1057 231.446 13.0345 231.407 11.9953C231.404 11.9119 231.36 11.8701 231.277 11.8701H227.736C227.622 11.8701 227.566 11.927 227.568 12.0406C227.589 14.1909 227.552 16.2853 227.147 18.3157C226.161 23.2771 223.312 26.9249 219.031 29.5974C219.021 29.6032 219.013 29.6111 219.008 29.6205C219.002 29.6299 218.999 29.6404 218.998 29.6514C218.997 29.6623 218.999 29.6732 219.003 29.6833C219.008 29.6934 219.014 29.7023 219.023 29.7093C220.198 30.6384 221.096 31.5097 221.716 32.3233C221.739 32.3526 221.771 32.3725 221.808 32.3789C221.844 32.3853 221.881 32.3778 221.911 32.3579C225.558 30.0575 228.15 27.0634 229.686 23.3757Z" stroke="#8F87E4" stroke-width="0.532912"/>
<path d="M216.118 24.9051V13.3356C216.118 13.2255 216.063 13.1704 215.953 13.1704H212.54C212.435 13.1704 212.383 13.2228 212.383 13.3276C212.37 17.2339 212.371 21.2209 212.385 25.2888C212.391 26.7437 211.711 27.8894 210.579 28.7155C210.494 28.7776 210.481 28.8522 210.541 28.9393C211.236 29.9323 211.79 30.919 212.204 31.8996C212.24 31.9866 212.294 32.0009 212.367 31.9422C214.957 29.8346 217.938 28.0147 220.781 26.1308C220.856 26.0811 220.877 26.0136 220.845 25.9283C220.474 24.962 220.176 23.9406 219.95 22.8641C219.947 22.848 219.939 22.8329 219.929 22.8202C219.918 22.8075 219.905 22.7976 219.89 22.7913C219.874 22.785 219.858 22.7825 219.841 22.784C219.825 22.7856 219.809 22.7911 219.795 22.8001L216.297 25.0037C216.178 25.0801 216.118 25.0472 216.118 24.9051Z" stroke="#8F87E4" stroke-width="0.532912"/>
<path d="M294.959 72.4967C297.148 72.4861 299.272 72.5011 301.333 72.542C303.662 72.5873 306.396 73.3813 307.421 75.6516C307.699 76.2644 307.981 76.8844 308.269 77.5114C308.762 78.5799 310.062 79.254 311.011 78.2841C311.316 77.9697 311.557 77.6189 311.733 77.2316C312.868 74.711 313.044 71.7666 313.036 68.8782C313.03 67.2928 312.655 60.2957 309.492 61.7612C308.543 62.1982 308.042 63.5118 307.669 64.4311C307.323 65.2802 306.888 65.9321 306.364 66.3869C305.111 67.4793 303.02 68.0096 301.234 68.0576C299.135 68.1144 297.019 68.1242 294.887 68.0869C294.822 68.0851 294.789 68.0522 294.789 67.9883C294.787 62.517 294.788 56.909 294.791 51.1642C294.791 49.7947 295.681 48.902 297.014 48.8994C300.042 48.894 302.734 48.894 305.09 48.8994C306.739 48.902 308.335 49.1312 309.979 49.5708C310.921 49.8231 311.701 50.2245 312.319 50.7752C313.22 51.5764 313.931 52.4015 314.453 53.2506C315.602 55.1158 316.979 58.3479 319.849 57.3034C320.933 56.9064 321.333 55.7766 321.192 54.7028C320.901 52.5143 320.342 49.8275 319.516 46.6425C319.108 45.0731 318.085 44.4149 316.489 44.4149C302.463 44.4291 288.272 44.4336 273.917 44.4282C273.39 44.4282 272.915 44.7053 272.668 45.1716C271.509 47.3513 273.6 47.9135 274.935 48.7715C275.977 49.4403 276.537 50.4821 276.537 51.6918C276.535 64.7002 276.535 77.7796 276.537 90.9301C276.537 92.2891 275.74 93.4961 274.57 94.1356C273.392 94.7778 271.924 95.34 272.457 97.0426C272.686 97.7781 273.187 98.247 273.944 98.247C289.103 98.2506 304.212 98.2515 319.271 98.2497C320.099 98.2497 320.875 97.8154 321.176 96.984C322.698 92.7651 324.38 88.3695 326.223 83.7971C326.26 83.703 326.33 83.6559 326.433 83.6559H348.429C348.544 83.6559 348.622 83.711 348.661 83.8211C349.382 85.8248 350.199 88.0586 351.112 90.5225C351.877 92.5875 350.646 93.8612 349.071 94.9057C348.242 95.4563 348.004 96.2113 348.36 97.1705C348.624 97.8882 349.091 98.247 349.759 98.247C357.965 98.2506 366.415 98.2515 375.107 98.2497C376.772 98.2497 377.403 95.8702 376.015 95.0043C374.179 93.8612 372.575 93.0138 371.723 90.8475C365.583 75.2883 359.508 59.9155 353.497 44.7293C352.868 43.1413 351.712 42.3463 350.028 42.3445C345.551 42.341 340.603 42.3428 335.184 42.3499C333.929 42.3525 333.662 43.2878 334.038 44.311C334.494 45.5562 334.913 46.75 335.295 47.8922C335.323 47.9782 335.32 48.0713 335.287 48.156C330.88 59.0203 326.49 69.881 322.117 80.7382C321.115 83.2242 319.897 85.5131 318.725 87.9218C317.717 89.9922 315.887 92.3397 313.595 93.0112C311.902 93.505 310.431 93.7546 309.18 93.7599C305.478 93.7741 301.5 93.783 297.246 93.7865C295.775 93.7892 294.786 93.1151 294.786 91.4817C294.791 84.561 294.793 78.2886 294.791 72.6646C294.791 72.5527 294.847 72.4967 294.959 72.4967Z" stroke="#8F87E4" stroke-width="0.532912"/>
<path d="M143.048 90.2271C139.6 92.564 135.467 92.9823 131.327 92.0977C119.235 89.5077 117.575 75.4655 117.215 65.5427C117.105 62.5317 117.28 59.7153 117.74 57.0933C118.574 52.3291 120.905 48.215 126.235 47.85C130.056 47.5862 133.549 48.8732 134.796 52.5343C135.241 53.8452 135.39 55.2841 135.385 56.6697C135.379 58.1805 135.19 59.662 135.422 61.1754C136.03 65.1643 139.152 67.661 143 68.1699C147.231 68.7321 151.916 67.661 153.522 63.4377C154.583 60.6505 154.502 57.8314 153.28 54.9803C148.255 43.2696 130.535 42.1292 120.199 44.0423C109.52 46.0168 101.358 53.3283 99.5277 64.2477C98.723 69.0474 98.9122 73.9058 100.095 78.8228C101.971 86.6113 107.18 93.2514 114.564 96.5341C119.746 98.839 125.63 99.4652 131.396 99.1428C141.409 98.5805 150.759 94.8901 154.354 84.8714C154.881 83.4005 155.291 81.7547 155.582 79.9339C155.883 78.0528 156.136 75.0898 153.922 74.3996C151.7 73.7069 150.274 75.7 149.978 77.6104C149.168 82.8356 147.487 87.2162 143.048 90.2271Z" stroke="#8F87E4" stroke-width="0.532912"/>
<path d="M10.0702 56.0086C19.4956 69.5837 28.9219 83.1401 38.3491 96.6778C39.1885 97.8822 40.646 98.2739 42.1168 98.2659C46.9184 98.2481 51.9517 98.2446 57.2169 98.2552C57.5615 98.2552 57.9061 98.2348 58.2507 98.194C59.4711 98.0447 59.8761 96.6565 59.3299 95.7132C59.1309 95.3686 58.8085 95.0684 58.3627 94.8126C56.7426 93.8854 55.4823 92.9075 55.4849 90.8371C55.5027 78.1627 55.5045 65.0974 55.4903 51.6414C55.4876 49.5577 56.8172 48.6225 58.4239 47.6792C59.3485 47.1356 59.6336 46.2697 59.1833 45.2518C58.8938 44.5999 58.3911 44.2739 57.6752 44.2739C54.2006 44.2757 50.9045 44.2766 47.787 44.2766C46.5213 44.2766 45.9351 45.4357 46.127 46.5494C46.2735 47.3834 47.4992 47.9803 48.1867 48.332C49.4683 48.9875 50.2784 50.0693 50.2784 51.5721C50.2837 61.6371 50.2828 71.7366 50.2757 81.8709C50.2757 81.9011 50.2668 81.9277 50.2491 81.9508C50.2451 81.9556 50.2401 81.9594 50.2345 81.962C50.2288 81.9645 50.2226 81.9657 50.2164 81.9655C50.2102 81.9652 50.2042 81.9635 50.1987 81.9605C50.1933 81.9575 50.1886 81.9533 50.1851 81.9481C41.9534 70.2258 33.7341 58.4885 25.5273 46.736C24.3709 45.0813 23.377 44.2712 21.3812 44.2712C15.0929 44.2712 8.67394 44.2757 2.12445 44.2846C0.666938 44.2846 0.0460956 46.5334 1.15455 47.3861C2.06317 48.0816 3.17162 48.4386 3.95234 49.2939C4.49946 49.8943 4.77302 50.7141 4.77302 51.7533C4.77658 64.6232 4.77569 77.493 4.77036 90.3628C4.77036 91.2137 4.69398 91.847 4.54121 92.2626C3.92037 93.944 2.41755 94.1332 1.18386 95.1297C0.0780704 96.025 0.587001 98.2472 2.17241 98.2499C5.59726 98.2552 8.9324 98.2552 12.1778 98.2499C12.9506 98.2499 13.4728 97.8742 13.7446 97.1228C14.0963 96.1476 13.7846 95.3455 12.9026 94.8393C10.9282 93.7095 9.96891 92.8089 9.97691 90.3974C10.0053 78.9025 10.0071 67.4494 9.98224 56.0379C9.98159 56.0274 9.98445 56.0169 9.99036 56.0082C9.99628 55.9994 10.0049 55.9928 10.0149 55.9895C10.025 55.9862 10.0358 55.9862 10.0458 55.9897C10.0558 55.9931 10.0644 55.9998 10.0702 56.0086Z" stroke="#8F87E4" stroke-width="0.532912"/>
<path d="M90.9728 94.858C89.4087 93.9174 88.0418 93.0194 88.0445 90.9464C88.0463 77.7906 88.0454 64.6729 88.0418 51.5935C88.0391 49.4752 89.4647 48.5932 91.0528 47.6206C92.5822 46.6827 92.0093 44.2766 90.1868 44.2766C82.8006 44.2802 75.1915 44.2802 67.3595 44.2766C67.1126 44.2766 66.8648 44.3201 66.6161 44.4072C65.7155 44.7216 65.2785 46.2857 65.87 47.0584C66.4376 47.7992 67.5673 48.2068 68.3534 48.7344C69.3526 49.4059 69.7949 50.4717 69.7949 51.6947C69.786 65.1668 69.7851 78.2373 69.7922 90.9064C69.7922 92.3639 69.1021 93.4591 67.8604 94.1172C66.6374 94.7674 65.0999 95.3749 65.7501 97.1628C66.0148 97.8893 66.5202 98.2526 67.2662 98.2526C75.0059 98.2579 82.6621 98.2588 90.2347 98.2553C91.0981 98.2553 91.6523 97.7463 91.8681 96.8964C92.0999 95.9824 91.7535 95.3296 90.9728 94.858Z" stroke="#8F87E4" stroke-width="0.532912"/>
<path d="M250.862 48.7613C252.603 48.7027 254.171 48.7453 255.568 48.8892C256.745 49.01 258.095 49.4781 259.615 50.2934C261.459 51.282 262.586 53.4056 263.577 55.1589C264.06 56.0116 264.851 56.8909 265.8 57.2186C266.879 57.5943 268.4 57.3039 268.834 56.1261C269.041 55.5701 269.09 54.9777 268.984 54.3489C268.584 51.9774 268.071 49.4434 267.444 46.7469C267.124 45.3746 266.154 44.3674 264.672 44.3674C249.436 44.3728 234.23 44.3621 219.052 44.3355C217.512 44.3328 216.308 44.8604 215.876 46.5097C215.487 47.9966 215.025 50.1211 214.488 52.8834C214.142 54.6793 213.659 57.0641 216.263 57.3598C218.663 57.6343 220.014 54.5913 221.056 52.926C222.167 51.1514 223.817 49.8644 225.868 49.3235C227.981 48.764 230.188 48.6547 232.381 48.764C232.43 48.7675 232.455 48.7942 232.455 48.8439C232.453 62.7707 232.455 76.7552 232.461 90.7974C232.461 92.2389 231.928 93.35 230.601 94.0775C229.439 94.7143 227.851 95.2605 228.397 97.0058C228.66 97.8389 229.226 98.2555 230.094 98.2555C237.873 98.2484 245.488 98.2475 252.94 98.2528C253.529 98.2528 254.025 97.9784 254.307 97.4508C254.877 96.385 254.622 95.4044 253.577 94.8182C252.314 94.1121 250.993 93.1236 250.793 91.666C250.711 91.055 250.671 90.3124 250.673 89.4385C250.715 75.7977 250.72 62.299 250.686 48.9425C250.686 48.8252 250.745 48.7648 250.862 48.7613Z" stroke="#8F87E4" stroke-width="0.532912"/>
<path d="M181.455 72.4969C183.867 72.481 186.012 72.4969 187.89 72.5449C190.376 72.6089 193.077 73.4615 194.079 75.9982C194.434 76.8935 194.889 78.1991 195.817 78.6068C198.609 79.8325 199.35 73.211 199.443 71.7402C199.616 68.9451 199.638 66.2645 198.782 63.6772C198.343 62.3503 197.469 60.9354 195.814 61.852C194.999 62.305 194.495 63.6186 194.151 64.458C193.828 65.2484 193.42 65.8684 192.928 66.3178C191.34 67.77 188.7 68.1164 186.512 68.1057C184.815 68.0951 183.106 68.0942 181.383 68.1031C181.357 68.1031 181.331 68.0924 181.313 68.0734C181.294 68.0544 181.284 68.0287 181.284 68.0018C181.284 62.2304 181.285 56.6242 181.287 51.1831C181.287 49.643 182.281 48.8863 183.741 48.8889C186.73 48.8889 189.566 48.8987 192.249 48.9182C193.515 48.9271 194.947 49.1527 196.544 49.595C197.471 49.8508 198.245 50.2576 198.865 50.8154C200.466 52.2596 201.367 53.8743 202.435 55.6649C202.787 56.2547 203.279 56.7378 203.912 57.1144C205.254 57.9165 207.205 57.4635 207.597 55.8834C207.737 55.3167 207.724 54.5822 207.559 53.6798C207.161 51.5162 206.675 49.2655 206.099 46.9278C205.734 45.4463 204.911 44.4311 203.304 44.4311C189.461 44.4276 175.159 44.4276 160.399 44.4311C159.565 44.4338 159.051 45.0893 158.888 45.8833C158.574 47.4421 160.074 48.015 161.164 48.6065C162.379 49.27 163.032 50.3758 163.032 51.7427C163.034 64.9074 163.034 77.9895 163.034 90.989C163.034 92.4065 162.318 93.4963 161.092 94.1252C159.717 94.8339 158.142 95.5534 159.15 97.4799C159.418 97.9932 159.859 98.2499 160.474 98.2499C175.337 98.2499 190.13 98.2499 204.855 98.2499C206.445 98.2499 207.229 97.2614 207.597 95.7585C208.222 93.2006 208.73 90.798 209.121 88.5509C209.398 86.9655 209.139 85.4574 207.208 85.2495C205.958 85.1136 204.863 85.8384 204.183 86.8323C202.518 89.2597 201.236 92.1747 198.116 93.0567C196.299 93.5709 194.58 93.8001 192.702 93.7921C189.559 93.7761 186.548 93.7726 183.669 93.7814C182.077 93.785 181.281 92.9847 181.281 91.3807C181.287 85.7549 181.287 79.5181 181.281 72.6701C181.281 72.5547 181.339 72.4969 181.455 72.4969Z" stroke="#8F87E4" stroke-width="0.532912"/>
<path d="M148.636 13.0642C148.636 13.0516 148.634 13.0391 148.629 13.0275C148.624 13.0158 148.617 13.0053 148.608 12.9964C148.599 12.9874 148.589 12.9804 148.577 12.9756C148.565 12.9707 148.553 12.9683 148.54 12.9683H144.133C144.12 12.9683 144.108 12.9707 144.096 12.9756C144.085 12.9804 144.074 12.9874 144.065 12.9964C144.056 13.0053 144.049 13.0158 144.044 13.0275C144.04 13.0391 144.037 13.0516 144.037 13.0642V19.15C144.037 19.1626 144.04 19.1751 144.044 19.1868C144.049 19.1984 144.056 19.209 144.065 19.2179C144.074 19.2268 144.085 19.2338 144.096 19.2387C144.108 19.2435 144.12 19.246 144.133 19.246H148.54C148.553 19.246 148.565 19.2435 148.577 19.2387C148.589 19.2338 148.599 19.2268 148.608 19.2179C148.617 19.209 148.624 19.1984 148.629 19.1868C148.634 19.1751 148.636 19.1626 148.636 19.15V13.0642Z" stroke="#8F87E4" stroke-width="0.532912"/>
<path d="M180.741 5.5712C180.741 5.54364 180.73 5.51721 180.711 5.49772C180.691 5.47823 180.665 5.46729 180.637 5.46729H175.004C174.977 5.46729 174.95 5.47823 174.931 5.49772C174.911 5.51721 174.9 5.54364 174.9 5.5712V7.76147C174.9 7.78903 174.911 7.81546 174.931 7.83495C174.95 7.85444 174.977 7.86539 175.004 7.86539H180.637C180.665 7.86539 180.691 7.85444 180.711 7.83495C180.73 7.81546 180.741 7.78903 180.741 7.76147V5.5712Z" stroke="#8F87E4" stroke-width="0.532912"/>
<path d="M190.583 5.56831C190.583 5.54217 190.573 5.51709 190.554 5.4986C190.536 5.48011 190.51 5.46973 190.484 5.46973H184.841C184.815 5.46973 184.79 5.48011 184.771 5.4986C184.753 5.51709 184.742 5.54217 184.742 5.56831V7.77457C184.742 7.80072 184.753 7.82579 184.771 7.84428C184.79 7.86277 184.815 7.87316 184.841 7.87316H190.484C190.51 7.87316 190.536 7.86277 190.554 7.84428C190.573 7.82579 190.583 7.80072 190.583 7.77457V5.56831Z" stroke="#8F87E4" stroke-width="0.532912"/>
<path d="M180.737 10.9244C180.737 10.901 180.728 10.8787 180.711 10.8622C180.695 10.8457 180.672 10.8364 180.649 10.8364H174.984C174.961 10.8364 174.938 10.8457 174.922 10.8622C174.906 10.8787 174.896 10.901 174.896 10.9244V13.1466C174.896 13.1699 174.906 13.1923 174.922 13.2088C174.938 13.2253 174.961 13.2345 174.984 13.2345H180.649C180.672 13.2345 180.695 13.2253 180.711 13.2088C180.728 13.1923 180.737 13.1699 180.737 13.1466V10.9244Z" stroke="#8F87E4" stroke-width="0.532912"/>
<path d="M190.585 10.9217C190.585 10.8991 190.576 10.8774 190.56 10.8614C190.544 10.8454 190.522 10.8364 190.5 10.8364H184.829C184.807 10.8364 184.785 10.8454 184.769 10.8614C184.753 10.8774 184.744 10.8991 184.744 10.9217V13.1493C184.744 13.1719 184.753 13.1936 184.769 13.2096C184.785 13.2255 184.807 13.2345 184.829 13.2345H190.5C190.522 13.2345 190.544 13.2255 190.56 13.2096C190.576 13.1936 190.585 13.1719 190.585 13.1493V10.9217Z" stroke="#8F87E4" stroke-width="0.532912"/>
<path d="M328.092 79.1476C328.087 79.1606 328.085 79.1747 328.086 79.1887C328.088 79.2026 328.093 79.216 328.101 79.2276C328.109 79.2392 328.119 79.2487 328.132 79.2552C328.144 79.2616 328.158 79.265 328.172 79.2648H346.84C346.854 79.2648 346.867 79.2615 346.879 79.2551C346.892 79.2488 346.902 79.2396 346.91 79.2283C346.918 79.2171 346.923 79.2041 346.924 79.1905C346.926 79.1769 346.925 79.1631 346.92 79.1502L337.879 54.8388C337.873 54.8225 337.862 54.8084 337.848 54.7985C337.834 54.7885 337.817 54.7832 337.799 54.7832C337.782 54.7832 337.765 54.7885 337.75 54.7985C337.736 54.8084 337.725 54.8225 337.719 54.8388L328.092 79.1476Z" stroke="#8F87E4" stroke-width="0.532912"/>
<path d="M214.373 5.78163C215.849 5.83492 217.381 5.8216 218.967 5.74166C219.51 5.71501 219.995 5.77008 220.422 5.90686C220.965 6.07917 221.497 6.22927 222.018 6.35717C222.032 6.3608 222.046 6.36736 222.058 6.37648C222.07 6.38559 222.08 6.39707 222.087 6.41023C222.095 6.42339 222.099 6.43797 222.101 6.45312C222.103 6.46826 222.102 6.48366 222.098 6.4984C221.401 8.96933 220.522 11.3621 219.46 13.6767C219.446 13.7053 219.423 13.7281 219.394 13.7409C219.365 13.7536 219.333 13.7554 219.303 13.746L216.478 12.8267C216.463 12.8217 216.448 12.8135 216.436 12.8028C216.424 12.792 216.414 12.7789 216.407 12.7642C216.4 12.7494 216.396 12.7335 216.396 12.7172C216.395 12.7009 216.398 12.6847 216.404 12.6695L217.549 9.53866C217.574 9.47116 217.55 9.4374 217.477 9.4374L213.337 9.43474C213.23 9.43474 213.162 9.48537 213.131 9.58662C212.414 11.9385 211.488 14.1075 210.355 16.0935C210.349 16.103 210.342 16.1111 210.333 16.1173C210.323 16.1236 210.313 16.1277 210.302 16.1295C210.292 16.1313 210.281 16.1307 210.271 16.1277C210.26 16.1246 210.251 16.1193 210.243 16.1121L207.504 13.6501C207.44 13.5932 207.43 13.5284 207.475 13.4556C208.205 12.2405 208.807 10.9527 209.281 9.59195C210.187 6.98601 210.844 4.2202 211.253 1.29451C211.255 1.27703 211.261 1.26018 211.27 1.24499C211.279 1.2298 211.291 1.21657 211.305 1.20612C211.319 1.19566 211.335 1.18818 211.352 1.18414C211.37 1.1801 211.387 1.17957 211.405 1.1826L214.901 1.84074C214.926 1.8459 214.948 1.8608 214.963 1.88223C214.977 1.90366 214.983 1.92991 214.978 1.95532L214.264 5.64307C214.246 5.73189 214.283 5.77808 214.373 5.78163Z" fill="white"/>
<path d="M228.052 5.79494C230.189 5.80738 232.356 5.80471 234.553 5.78695C234.88 5.78517 235.22 5.77096 235.574 5.74432C236.036 5.70701 236.41 5.72655 236.698 5.80294C237.373 5.98235 238.077 6.16354 238.808 6.34651C238.91 6.37315 238.951 6.43799 238.931 6.54102C238.364 9.60704 237.578 12.5505 236.573 15.3714C236.53 15.4904 236.449 15.5304 236.33 15.4913L233.317 14.5001C233.216 14.4663 233.18 14.3979 233.21 14.2949C233.69 12.7139 234.081 11.125 234.383 9.52799C234.404 9.42319 234.36 9.37078 234.252 9.37078L227.132 9.36812C227.022 9.36812 226.951 9.42141 226.919 9.52799C226.301 11.6783 225.419 13.9192 224.199 15.7737C224.142 15.8608 224.071 15.8741 223.986 15.8137L220.929 13.6687C220.844 13.6101 220.829 13.5373 220.884 13.4502C221.658 12.2263 222.206 11.1845 222.525 10.3247C223.565 7.52158 224.253 4.54349 224.59 1.39042C224.608 1.2341 224.695 1.1666 224.852 1.18792L228.441 1.70484C228.558 1.72261 228.607 1.79011 228.587 1.90735L227.937 5.65905C227.921 5.74965 227.959 5.79494 228.052 5.79494Z" fill="white"/>
<path d="M152.913 9.13648L157.131 9.14181C157.156 9.14181 157.18 9.15163 157.197 9.16912C157.215 9.18661 157.224 9.21033 157.224 9.23507L157.216 12.8749C157.216 12.8996 157.207 12.9233 157.189 12.9408C157.172 12.9583 157.148 12.9681 157.123 12.9681L152.913 12.9708C152.901 12.9708 152.889 12.9732 152.877 12.9779C152.866 12.9826 152.856 12.9894 152.847 12.9981C152.838 13.0068 152.832 13.017 152.827 13.0284C152.822 13.0397 152.82 13.0518 152.82 13.064V22.7923C152.82 22.8171 152.81 22.8408 152.793 22.8583C152.775 22.8758 152.751 22.8856 152.727 22.8856L140.187 22.8829C140.162 22.8829 140.139 22.8731 140.121 22.8556C140.104 22.8381 140.094 22.8144 140.094 22.7897V13.0614C140.094 13.0491 140.091 13.037 140.087 13.0257C140.082 13.0144 140.075 13.0041 140.067 12.9954C140.058 12.9868 140.048 12.9799 140.036 12.9752C140.025 12.9705 140.013 12.9681 140.001 12.9681L135.649 12.9734C135.625 12.9734 135.601 12.9833 135.583 13.0008C135.566 13.0183 135.556 13.042 135.556 13.0667V26.5627C135.556 26.5874 135.566 26.6112 135.583 26.6286C135.601 26.6461 135.625 26.656 135.649 26.656H156.265C156.29 26.656 156.314 26.6658 156.331 26.6833C156.349 26.7008 156.358 26.7245 156.358 26.7492L156.356 30.3997C156.356 30.4244 156.346 30.4481 156.328 30.4656C156.311 30.4831 156.287 30.4929 156.262 30.4929H131.509C131.484 30.4929 131.46 30.4831 131.443 30.4656C131.425 30.4481 131.415 30.4244 131.415 30.3997V13.0614C131.415 13.0366 131.406 13.0129 131.388 12.9954C131.371 12.9779 131.347 12.9681 131.322 12.9681L126.998 12.9734C126.973 12.9734 126.949 12.9636 126.932 12.9461C126.914 12.9286 126.904 12.9049 126.904 12.8802V9.2324C126.904 9.22016 126.907 9.20803 126.911 9.19672C126.916 9.1854 126.923 9.17512 126.932 9.16646C126.94 9.1578 126.951 9.15093 126.962 9.14624C126.973 9.14156 126.985 9.13914 126.998 9.13914L131.325 9.13648C131.337 9.13648 131.349 9.13407 131.36 9.12938C131.372 9.12469 131.382 9.11782 131.391 9.10916C131.399 9.1005 131.406 9.09022 131.411 9.07891C131.416 9.06759 131.418 9.05547 131.418 9.04322L131.415 2.18198C131.415 2.15724 131.425 2.13352 131.443 2.11603C131.46 2.09854 131.484 2.08872 131.509 2.08872L135.463 2.09405C135.488 2.09405 135.511 2.10387 135.529 2.12136C135.546 2.13885 135.556 2.16257 135.556 2.18731V9.04322C135.556 9.06795 135.566 9.09167 135.583 9.10916C135.601 9.12665 135.625 9.13648 135.649 9.13648L140.001 9.13914C140.013 9.13914 140.025 9.13673 140.036 9.13204C140.048 9.12736 140.058 9.12049 140.067 9.11183C140.075 9.10317 140.082 9.09289 140.087 9.08157C140.091 9.07026 140.094 9.05813 140.094 9.04588V1.48653C140.094 1.46179 140.104 1.43807 140.121 1.42058C140.139 1.40309 140.162 1.39327 140.187 1.39327L143.944 1.38794C143.969 1.38794 143.993 1.39776 144.01 1.41525C144.028 1.43274 144.037 1.45646 144.037 1.4812V9.04322C144.037 9.05547 144.04 9.06759 144.045 9.07891C144.049 9.09022 144.056 9.1005 144.065 9.10916C144.073 9.11782 144.084 9.12469 144.095 9.12938C144.106 9.13407 144.118 9.13648 144.131 9.13648L148.543 9.13914C148.568 9.13914 148.592 9.12932 148.609 9.11183C148.627 9.09434 148.636 9.07062 148.636 9.04588L148.639 1.78762C148.639 1.77538 148.642 1.76325 148.646 1.75193C148.651 1.74062 148.658 1.73034 148.666 1.72168C148.675 1.71302 148.685 1.70615 148.697 1.70146C148.708 1.69677 148.72 1.69436 148.732 1.69436H152.724C152.736 1.69436 152.748 1.69677 152.76 1.70146C152.771 1.70615 152.781 1.71302 152.79 1.72168C152.798 1.73034 152.805 1.74062 152.81 1.75193C152.815 1.76325 152.817 1.77538 152.817 1.78762L152.82 9.04322C152.82 9.05547 152.822 9.06759 152.827 9.07891C152.832 9.09022 152.838 9.1005 152.847 9.10916C152.856 9.11782 152.866 9.12469 152.877 9.12938C152.889 9.13407 152.901 9.13648 152.913 9.13648ZM148.636 13.064C148.636 13.0514 148.634 13.039 148.629 13.0273C148.624 13.0157 148.617 13.0051 148.608 12.9962C148.599 12.9873 148.589 12.9802 148.577 12.9754C148.566 12.9706 148.553 12.9681 148.541 12.9681H144.133C144.121 12.9681 144.108 12.9706 144.097 12.9754C144.085 12.9802 144.074 12.9873 144.066 12.9962C144.057 13.0051 144.05 13.0157 144.045 13.0273C144.04 13.039 144.037 13.0514 144.037 13.064V19.1499C144.037 19.1625 144.04 19.175 144.045 19.1866C144.05 19.1982 144.057 19.2088 144.066 19.2177C144.074 19.2266 144.085 19.2337 144.097 19.2385C144.108 19.2433 144.121 19.2458 144.133 19.2458H148.541C148.553 19.2458 148.566 19.2433 148.577 19.2385C148.589 19.2337 148.599 19.2266 148.608 19.2177C148.617 19.2088 148.624 19.1982 148.629 19.1866C148.634 19.175 148.636 19.1625 148.636 19.1499V13.064Z" fill="white"/>
<path d="M177.37 20.4154L179.838 20.41C179.966 20.41 180.027 20.474 180.022 20.6019C179.993 21.2858 179.985 21.967 179.998 22.6456C180.078 27.6976 177.037 30.8285 172.54 32.4645C172.447 32.4983 172.374 32.4743 172.321 32.3926C171.612 31.3356 170.755 30.3409 169.75 29.4083C169.739 29.3988 169.731 29.3868 169.727 29.3734C169.723 29.3599 169.722 29.3456 169.725 29.3318C169.728 29.318 169.735 29.3052 169.744 29.2948C169.754 29.2843 169.766 29.2766 169.779 29.2724C171.479 28.7288 173.288 27.8308 174.506 26.4799C175.595 25.2773 176.051 23.6333 175.873 21.5478C175.862 21.4323 175.809 21.4075 175.713 21.4732C173.962 22.6492 172.044 23.627 169.96 24.4069C169.922 24.4204 169.881 24.4209 169.843 24.4083C169.804 24.3958 169.772 24.3709 169.75 24.3376C169.057 23.2753 168.255 22.2672 167.344 21.3133C167.257 21.2227 167.274 21.1597 167.394 21.1241C170.546 20.1756 173.427 18.6745 176.038 16.621C176.189 16.502 176.168 16.4425 175.974 16.4425L171.077 16.4398C170.976 16.4398 170.925 16.3883 170.925 16.2853L170.922 2.35231C170.922 2.32829 170.932 2.30524 170.95 2.28825C170.967 2.27126 170.991 2.26172 171.015 2.26172H194.576C194.677 2.26172 194.727 2.31235 194.727 2.4136L194.725 16.2906C194.725 16.3901 194.676 16.4398 194.578 16.4398L189.542 16.4452C189.384 16.4452 189.365 16.4967 189.484 16.5997C189.722 16.804 189.971 16.9976 190.232 17.1806C192.668 18.8824 195.347 20.124 198.271 20.9056C198.288 20.9098 198.303 20.9181 198.315 20.9299C198.327 20.9416 198.336 20.9563 198.34 20.9725C198.345 20.9887 198.345 21.0058 198.341 21.0222C198.337 21.0385 198.328 21.0534 198.317 21.0655C197.407 22.0212 196.586 23.079 195.855 24.239C195.803 24.3189 195.733 24.3429 195.644 24.311C193.692 23.6235 191.917 22.7735 190.32 21.761C190.208 21.6881 190.152 21.7192 190.152 21.8542L190.15 32.0222C190.15 32.0453 190.145 32.0682 190.136 32.0895C190.127 32.1108 190.115 32.1302 190.098 32.1465C190.082 32.1629 190.062 32.1758 190.041 32.1847C190.02 32.1935 189.997 32.1981 189.974 32.1981L186.166 32.1954C186.063 32.1954 186.012 32.1439 186.012 32.0408V20.5859C186.012 20.4917 186.059 20.4447 186.153 20.4447L188.295 20.45C188.45 20.45 188.467 20.402 188.346 20.3061C186.964 19.2065 185.744 17.9604 184.687 16.5677C184.623 16.4825 184.539 16.4398 184.434 16.4398H181.306C181.268 16.4398 181.23 16.4485 181.195 16.4651C181.161 16.4816 181.13 16.5058 181.106 16.5358C179.985 17.9284 178.724 19.1772 177.323 20.2821C177.209 20.3727 177.225 20.4171 177.37 20.4154ZM180.741 5.5711C180.741 5.54354 180.73 5.51711 180.711 5.49762C180.691 5.47813 180.665 5.46718 180.637 5.46718H175.004C174.977 5.46718 174.95 5.47813 174.931 5.49762C174.911 5.51711 174.9 5.54354 174.9 5.5711V7.76137C174.9 7.78893 174.911 7.81536 174.931 7.83485C174.95 7.85434 174.977 7.86529 175.004 7.86529H180.637C180.665 7.86529 180.691 7.85434 180.711 7.83485C180.73 7.81536 180.741 7.78893 180.741 7.76137V5.5711ZM190.584 5.56844C190.584 5.54229 190.574 5.51721 190.555 5.49872C190.537 5.48024 190.512 5.46985 190.485 5.46985H184.842C184.816 5.46985 184.791 5.48024 184.772 5.49872C184.754 5.51721 184.743 5.54229 184.743 5.56844V7.77469C184.743 7.80084 184.754 7.82592 184.772 7.84441C184.791 7.8629 184.816 7.87328 184.842 7.87328H190.485C190.512 7.87328 190.537 7.8629 190.555 7.84441C190.574 7.82592 190.584 7.80084 190.584 7.77469V5.56844ZM180.738 10.9242C180.738 10.9009 180.729 10.8785 180.713 10.862C180.696 10.8455 180.674 10.8363 180.651 10.8363H174.986C174.962 10.8363 174.94 10.8455 174.924 10.862C174.907 10.8785 174.898 10.9009 174.898 10.9242V13.1464C174.898 13.1698 174.907 13.1921 174.924 13.2086C174.94 13.2251 174.962 13.2344 174.986 13.2344H180.651C180.674 13.2344 180.696 13.2251 180.713 13.2086C180.729 13.1921 180.738 13.1698 180.738 13.1464V10.9242ZM190.587 10.9215C190.587 10.8989 190.578 10.8772 190.562 10.8612C190.546 10.8453 190.524 10.8363 190.501 10.8363H184.831C184.809 10.8363 184.787 10.8453 184.771 10.8612C184.755 10.8772 184.746 10.8989 184.746 10.9215V13.1491C184.746 13.1717 184.755 13.1934 184.771 13.2094C184.787 13.2254 184.809 13.2344 184.831 13.2344H190.501C190.524 13.2344 190.546 13.2254 190.562 13.2094C190.578 13.1934 190.587 13.1717 190.587 13.1491V10.9215Z" fill="white"/>
<path d="M229.686 23.3759C228.15 27.0637 225.558 30.0578 221.911 32.3582C221.881 32.3781 221.844 32.3856 221.808 32.3791C221.772 32.3727 221.739 32.3528 221.717 32.3235C221.097 31.5099 220.199 30.6386 219.023 29.7096C219.014 29.7026 219.008 29.6936 219.004 29.6835C218.999 29.6735 218.997 29.6625 218.998 29.6516C218.999 29.6407 219.002 29.6301 219.008 29.6207C219.014 29.6114 219.021 29.6035 219.031 29.5977C223.313 26.9251 226.161 23.2773 227.147 18.3159C227.552 16.2855 227.589 14.1912 227.568 12.0409C227.566 11.9272 227.622 11.8704 227.736 11.8704H231.277C231.361 11.8704 231.404 11.9121 231.408 11.9956C231.447 13.0348 231.428 14.1059 231.352 15.2091C231.304 15.9303 231.364 16.6346 231.533 17.322C232.748 22.2808 234.973 26.9011 239.676 29.0834C239.684 29.0873 239.692 29.0931 239.697 29.1003C239.703 29.1076 239.707 29.1162 239.709 29.1253C239.711 29.1344 239.71 29.1438 239.708 29.1527C239.705 29.1617 239.701 29.1699 239.694 29.1767C238.776 30.159 237.969 31.2222 237.272 32.3662C237.262 32.3833 237.246 32.396 237.227 32.4014C237.208 32.4069 237.188 32.4048 237.171 32.3955C233.481 30.3864 231.325 27.2262 229.79 23.3786C229.757 23.2916 229.722 23.2907 229.686 23.3759Z" fill="white"/>
<path d="M216.297 25.004L219.795 22.8004C219.809 22.7913 219.825 22.7858 219.841 22.7843C219.858 22.7828 219.874 22.7852 219.89 22.7915C219.905 22.7978 219.918 22.8078 219.929 22.8204C219.939 22.8331 219.947 22.8482 219.95 22.8643C220.176 23.9408 220.474 24.9622 220.845 25.9286C220.877 26.0138 220.856 26.0813 220.781 26.1311C217.938 28.0149 214.957 29.8348 212.367 31.9425C212.294 32.0011 212.24 31.9869 212.204 31.8998C211.79 30.9193 211.236 29.9325 210.541 28.9395C210.481 28.8525 210.494 28.7779 210.579 28.7157C211.711 27.8897 212.391 26.7439 212.385 25.2891C212.371 21.2212 212.37 17.2341 212.383 13.3279C212.383 13.2231 212.435 13.1707 212.54 13.1707H215.953C216.063 13.1707 216.118 13.2257 216.118 13.3359V24.9054C216.118 25.0475 216.178 25.0804 216.297 25.004Z" fill="white"/>
<path d="M294.795 72.6648C294.797 78.2888 294.795 84.5612 294.79 91.4819C294.79 93.1153 295.779 93.7895 297.249 93.7868C301.504 93.7832 305.482 93.7744 309.184 93.7601C310.435 93.7548 311.906 93.5052 313.599 93.0114C315.891 92.3399 317.721 89.9925 318.728 87.9221C319.901 85.5133 321.119 83.2245 322.12 80.7384C326.494 69.8812 330.884 59.0205 335.291 48.1562C335.324 48.0716 335.327 47.9785 335.299 47.8924C334.917 46.7502 334.498 45.5565 334.042 44.3112C333.666 43.288 333.932 42.3528 335.187 42.3501C340.607 42.343 345.555 42.3412 350.032 42.3448C351.716 42.3466 352.872 43.1415 353.501 44.7296C359.512 59.9158 365.587 75.2885 371.727 90.8478C372.579 93.0141 374.183 93.8614 376.019 95.0045C377.407 95.8705 376.776 98.2499 375.111 98.2499C366.419 98.2517 357.969 98.2508 349.763 98.2473C349.095 98.2473 348.628 97.8884 348.364 97.1708C348.008 96.2115 348.246 95.4566 349.075 94.9059C350.65 93.8614 351.881 92.5877 351.116 90.5227C350.203 88.0589 349.386 85.8251 348.665 83.8213C348.626 83.7112 348.548 83.6561 348.433 83.6561H326.437C326.334 83.6561 326.264 83.7032 326.227 83.7974C324.384 88.3697 322.702 92.7654 321.18 96.9843C320.879 97.8156 320.103 98.2499 319.275 98.2499C304.216 98.2517 289.107 98.2508 273.948 98.2473C273.191 98.2473 272.69 97.7783 272.461 97.0429C271.928 95.3402 273.396 94.778 274.574 94.1358C275.744 93.4964 276.54 92.2893 276.54 90.9304C276.539 77.7799 276.539 64.7004 276.54 51.6921C276.54 50.4824 275.981 49.4405 274.939 48.7717C273.604 47.9137 271.512 47.3515 272.672 45.1719C272.919 44.7056 273.394 44.4285 273.921 44.4285C288.276 44.4338 302.467 44.4294 316.493 44.4152C318.089 44.4152 319.112 45.0733 319.52 46.6427C320.346 49.8278 320.904 52.5145 321.196 54.703C321.337 55.7768 320.937 56.9066 319.853 57.3036C316.983 58.3481 315.606 55.116 314.457 53.2508C313.935 52.4017 313.223 51.5766 312.323 50.7755C311.705 50.2248 310.925 49.8233 309.983 49.5711C308.339 49.1314 306.743 48.9023 305.094 48.8996C302.738 48.8943 300.046 48.8943 297.018 48.8996C295.685 48.9023 294.795 49.7949 294.795 51.1645C294.792 56.9093 294.791 62.5173 294.793 67.9885C294.793 68.0525 294.826 68.0853 294.891 68.0871C297.023 68.1244 299.139 68.1146 301.238 68.0578C303.024 68.0098 305.115 67.4796 306.368 66.3871C306.892 65.9324 307.327 65.2804 307.673 64.4313C308.046 63.5121 308.547 62.1984 309.496 61.7614C312.659 60.2959 313.034 67.2931 313.04 68.8785C313.048 71.7669 312.872 74.7112 311.737 77.2319C311.561 77.6191 311.32 77.97 311.015 78.2844C310.066 79.2543 308.766 78.5802 308.273 77.5117C307.985 76.8846 307.702 76.2646 307.425 75.6518C306.399 73.3816 303.666 72.5875 301.337 72.5422C299.276 72.5014 297.152 72.4863 294.963 72.497C294.851 72.497 294.795 72.5529 294.795 72.6648ZM328.094 79.1477C328.089 79.1607 328.087 79.1748 328.089 79.1888C328.09 79.2027 328.095 79.2161 328.103 79.2277C328.111 79.2393 328.122 79.2488 328.134 79.2553C328.146 79.2618 328.16 79.2651 328.174 79.2649H346.842C346.856 79.2649 346.869 79.2616 346.882 79.2552C346.894 79.2489 346.904 79.2397 346.912 79.2285C346.92 79.2172 346.925 79.2042 346.927 79.1906C346.928 79.1771 346.927 79.1632 346.922 79.1504L337.881 54.8389C337.875 54.8226 337.864 54.8085 337.85 54.7986C337.836 54.7886 337.819 54.7833 337.801 54.7833C337.784 54.7833 337.767 54.7886 337.753 54.7986C337.738 54.8085 337.727 54.8226 337.721 54.8389L328.094 79.1477Z" fill="white"/>
<path d="M143.048 90.2271C147.487 87.2162 149.168 82.8356 149.978 77.6104C150.274 75.7 151.7 73.7069 153.922 74.3996C156.136 75.0898 155.883 78.0528 155.582 79.9339C155.291 81.7547 154.881 83.4005 154.354 84.8714C150.759 94.8901 141.409 98.5805 131.396 99.1428C125.63 99.4652 119.746 98.839 114.564 96.5341C107.18 93.2514 101.971 86.6113 100.095 78.8228C98.9122 73.9058 98.723 69.0474 99.5277 64.2477C101.358 53.3283 109.52 46.0168 120.199 44.0423C130.535 42.1292 148.255 43.2696 153.28 54.9803C154.502 57.8314 154.583 60.6505 153.522 63.4377C151.916 67.661 147.231 68.7321 143 68.1699C139.152 67.661 136.03 65.1643 135.422 61.1754C135.19 59.662 135.379 58.1805 135.385 56.6697C135.39 55.2841 135.241 53.8452 134.796 52.5343C133.549 48.8732 130.056 47.5862 126.235 47.85C120.905 48.215 118.574 52.3291 117.74 57.0933C117.28 59.7153 117.105 62.5317 117.215 65.5427C117.575 75.4655 119.235 89.5077 131.327 92.0977C135.467 92.9823 139.6 92.564 143.048 90.2271Z" fill="white"/>
<path d="M10.0702 56.0086C10.0644 55.9998 10.0558 55.9931 10.0458 55.9897C10.0358 55.9862 10.025 55.9862 10.0149 55.9895C10.0049 55.9928 9.99628 55.9994 9.99036 56.0082C9.98445 56.0169 9.98159 56.0274 9.98224 56.0379C10.0071 67.4494 10.0053 78.9025 9.97691 90.3974C9.96891 92.8089 10.9282 93.7095 12.9026 94.8393C13.7846 95.3455 14.0963 96.1476 13.7446 97.1228C13.4728 97.8742 12.9506 98.2499 12.1778 98.2499C8.9324 98.2552 5.59726 98.2552 2.17241 98.2499C0.587001 98.2472 0.0780704 96.025 1.18386 95.1297C2.41755 94.1332 3.92037 93.944 4.54121 92.2626C4.69398 91.847 4.77036 91.2137 4.77036 90.3628C4.77569 77.493 4.77658 64.6232 4.77302 51.7533C4.77302 50.7141 4.49946 49.8943 3.95234 49.2939C3.17162 48.4386 2.06317 48.0816 1.15455 47.3861C0.0460956 46.5334 0.666938 44.2846 2.12445 44.2846C8.67394 44.2757 15.0929 44.2712 21.3812 44.2712C23.377 44.2712 24.3709 45.0813 25.5273 46.736C33.7341 58.4885 41.9534 70.2258 50.1851 81.9481C50.1886 81.9533 50.1933 81.9575 50.1987 81.9605C50.2042 81.9635 50.2102 81.9652 50.2164 81.9655C50.2226 81.9657 50.2288 81.9645 50.2345 81.962C50.2401 81.9594 50.2451 81.9556 50.2491 81.9508C50.2668 81.9277 50.2757 81.9011 50.2757 81.8709C50.2828 71.7366 50.2837 61.6371 50.2784 51.5721C50.2784 50.0693 49.4683 48.9875 48.1867 48.332C47.4992 47.9803 46.2735 47.3834 46.127 46.5494C45.9351 45.4357 46.5213 44.2766 47.787 44.2766C50.9045 44.2766 54.2006 44.2757 57.6752 44.2739C58.3911 44.2739 58.8938 44.5999 59.1833 45.2518C59.6336 46.2697 59.3485 47.1356 58.4239 47.6792C56.8172 48.6225 55.4876 49.5577 55.4903 51.6414C55.5045 65.0974 55.5027 78.1627 55.4849 90.8371C55.4823 92.9075 56.7426 93.8854 58.3627 94.8126C58.8085 95.0684 59.1309 95.3686 59.3299 95.7132C59.8761 96.6565 59.4711 98.0447 58.2507 98.194C57.9061 98.2348 57.5615 98.2552 57.2169 98.2552C51.9517 98.2446 46.9184 98.2481 42.1168 98.2659C40.646 98.2739 39.1885 97.8822 38.3491 96.6778C28.9219 83.1401 19.4956 69.5837 10.0702 56.0086Z" fill="white"/>
<path d="M88.0464 90.9464C88.0438 93.0194 89.4107 93.9174 90.9748 94.858C91.7555 95.3296 92.1019 95.9824 91.8701 96.8964C91.6542 97.7463 91.1 98.2553 90.2367 98.2553C82.664 98.2588 75.0078 98.2579 67.2682 98.2526C66.5221 98.2526 66.0167 97.8893 65.7521 97.1628C65.1019 95.3749 66.6394 94.7674 67.8624 94.1172C69.1041 93.4591 69.7942 92.3639 69.7942 90.9064C69.7871 78.2373 69.788 65.1668 69.7969 51.6947C69.7969 50.4717 69.3545 49.4059 68.3553 48.7344C67.5693 48.2068 66.4395 47.7992 65.872 47.0584C65.2804 46.2857 65.7174 44.7216 66.618 44.4072C66.8667 44.3201 67.1145 44.2766 67.3615 44.2766C75.1935 44.2802 82.8026 44.2802 90.1887 44.2766C92.0113 44.2766 92.5842 46.6827 91.0547 47.6206C89.4666 48.5932 88.0411 49.4752 88.0438 51.5935C88.0473 64.6729 88.0482 77.7906 88.0464 90.9464Z" fill="white"/>
<path d="M250.686 48.9422C250.72 62.2988 250.715 75.7974 250.673 89.4382C250.671 90.3122 250.711 91.0547 250.793 91.6658C250.993 93.1233 252.314 94.1119 253.577 94.818C254.622 95.4042 254.877 96.3847 254.307 97.4506C254.025 97.9781 253.529 98.2526 252.94 98.2526C245.488 98.2473 237.873 98.2481 230.094 98.2552C229.226 98.2552 228.66 97.8387 228.397 97.0056C227.851 95.2603 229.439 94.7141 230.601 94.0772C231.928 93.3498 232.461 92.2387 232.461 90.7971C232.455 76.7549 232.453 62.7704 232.455 48.8436C232.455 48.7939 232.43 48.7673 232.381 48.7637C230.188 48.6545 227.981 48.7637 225.868 49.3233C223.817 49.8642 222.167 51.1512 221.056 52.9258C220.014 54.5911 218.663 57.634 216.263 57.3596C213.659 57.0638 214.142 54.679 214.488 52.8831C215.025 50.1209 215.487 47.9963 215.876 46.5095C216.308 44.8601 217.512 44.3326 219.052 44.3352C234.23 44.3619 249.436 44.3725 264.672 44.3672C266.154 44.3672 267.124 45.3744 267.444 46.7466C268.071 49.4432 268.584 51.9772 268.984 54.3486C269.09 54.9775 269.041 55.5699 268.834 56.1259C268.4 57.3036 266.879 57.5941 265.8 57.2184C264.851 56.8906 264.06 56.0113 263.577 55.1587C262.586 53.4054 261.459 51.2817 259.615 50.2932C258.095 49.4778 256.745 49.0097 255.568 48.8889C254.171 48.7451 252.603 48.7024 250.862 48.761C250.745 48.7646 250.686 48.825 250.686 48.9422Z" fill="white"/>
<path d="M181.285 72.6704C181.291 79.5183 181.291 85.7551 181.285 91.3809C181.285 92.985 182.081 93.7852 183.673 93.7817C186.552 93.7728 189.563 93.7764 192.706 93.7923C194.584 93.8003 196.303 93.5712 198.12 93.0569C201.24 92.175 202.522 89.2599 204.187 86.8325C204.867 85.8386 205.962 85.1139 207.211 85.2498C209.143 85.4576 209.402 86.9657 209.125 88.5512C208.734 90.7983 208.226 93.2008 207.601 95.7588C207.233 97.2616 206.449 98.2502 204.859 98.2502C190.134 98.2502 175.341 98.2502 160.478 98.2502C159.863 98.2502 159.422 97.9935 159.153 97.4801C158.146 95.5536 159.721 94.8342 161.096 94.1254C162.322 93.4966 163.038 92.4068 163.038 90.9892C163.038 77.9897 163.038 64.9076 163.036 51.7429C163.036 50.376 162.383 49.2702 161.168 48.6067C160.078 48.0152 158.578 47.4423 158.892 45.8836C159.055 45.0895 159.569 44.434 160.403 44.4314C175.163 44.4278 189.465 44.4278 203.308 44.4314C204.915 44.4314 205.738 45.4466 206.103 46.9281C206.679 49.2658 207.165 51.5164 207.563 53.6801C207.728 54.5825 207.741 55.317 207.601 55.8837C207.209 57.4637 205.258 57.9167 203.915 57.1147C203.283 56.7381 202.791 56.2549 202.439 55.6652C201.371 53.8746 200.47 52.2599 198.869 50.8157C198.249 50.2579 197.475 49.8511 196.548 49.5953C194.951 49.153 193.519 48.9274 192.253 48.9185C189.57 48.8989 186.734 48.8892 183.745 48.8892C182.285 48.8865 181.291 49.6432 181.291 51.1834C181.289 56.6244 181.288 62.2306 181.288 68.0021C181.288 68.0289 181.298 68.0547 181.317 68.0737C181.335 68.0927 181.36 68.1033 181.387 68.1033C183.11 68.0944 184.819 68.0953 186.516 68.106C188.703 68.1166 191.344 67.7703 192.932 66.3181C193.424 65.8687 193.832 65.2487 194.155 64.4582C194.499 63.6189 195.002 62.3052 195.818 61.8523C197.473 60.9357 198.346 62.3505 198.786 63.6775C199.641 66.2648 199.62 68.9453 199.447 71.7405C199.354 73.2113 198.613 79.8327 195.82 78.607C194.893 78.1993 194.438 76.8937 194.083 75.9984C193.081 73.4618 190.379 72.6091 187.893 72.5451C186.016 72.4972 183.871 72.4812 181.458 72.4972C181.343 72.4972 181.285 72.5549 181.285 72.6704Z" fill="white"/>
</g>
<defs>
<clipPath id="clip0_0_283">
<rect width="378" height="98.9471" fill="white" transform="translate(0 0.0263672)"/>
</clipPath>
</defs>
</svg>
