<svg width="384" height="105" viewBox="0 0 384 105" fill="none" xmlns="http://www.w3.org/2000/svg">
<path d="M256.201 35.0758L256.957 32.8235C257.02 32.6308 257.154 32.5348 257.358 32.5348H259.518C259.733 32.5348 259.842 32.6413 259.846 32.855L260.173 44.8723C260.177 45.0647 260.082 45.161 259.888 45.161L257.738 45.1453C257.631 45.1434 257.527 45.1061 257.444 45.0397C257.361 44.9731 257.302 44.8807 257.279 44.7778C255.816 38.5933 251.02 33.2015 244.127 35.1388C237.318 37.055 237.588 47.03 237.878 52.553C237.959 54.1734 238.207 55.7818 238.623 57.3778C239.996 62.6488 246.171 64.775 250.882 62.6488C254.696 60.9268 256.74 57.3305 257.701 53.351C257.754 53.1234 257.899 53.0079 258.134 53.0045L260.3 52.9993C260.518 52.9993 260.628 53.1058 260.628 53.3195L260.633 65.4733C260.633 65.6972 260.518 65.8093 260.29 65.8093L258.029 65.7883C257.95 65.7883 257.874 65.7612 257.813 65.7113C257.752 65.6615 257.711 65.5922 257.696 65.5153C257.506 64.5842 257.133 63.6864 256.576 62.822C256.555 62.7889 256.526 62.7611 256.493 62.7401C256.46 62.7191 256.422 62.7057 256.383 62.7007C256.345 62.6957 256.305 62.6992 256.268 62.7112C256.231 62.723 256.198 62.743 256.169 62.7695C254.113 64.7154 251.701 65.9458 248.933 66.4603C242.658 67.631 236.267 66.1295 231.999 61.205C226.728 55.115 226.2 46.2898 230.483 39.4228C233.952 33.8646 239.218 31.2257 246.282 31.5058C249.835 31.6491 252.951 32.8899 255.631 35.228C255.899 35.4624 256.089 35.4118 256.201 35.0758Z" fill="white"/>
<path d="M15.3924 35.1582C13.7374 35.1057 12.1511 35.1511 10.6334 35.2947C7.44306 35.5887 6.30216 38.8804 6.0803 41.6472C6.07328 41.7275 6.02748 41.7679 5.94298 41.7679L3.30727 41.7522C3.21571 41.7522 3.16992 41.7049 3.16992 41.6104L3.17522 32.1867C3.17522 32.1714 3.17823 32.1565 3.18405 32.1423C3.18991 32.1284 3.19847 32.1155 3.20926 32.105C3.22005 32.0943 3.23285 32.0856 3.24696 32.0798C3.26104 32.0741 3.27616 32.0712 3.29142 32.0712L37.2176 32.0659C37.2764 32.0659 37.3328 32.0895 37.3746 32.1321C37.4161 32.1743 37.4394 32.2318 37.4394 32.2917L37.4605 41.5054C37.4605 41.6734 37.3761 41.7574 37.2071 41.7574L34.7404 41.7679C34.5855 41.7679 34.4938 41.6907 34.4656 41.5369C33.4515 35.5624 30.6627 34.8957 24.9845 35.1634C24.8014 35.1739 24.7081 35.27 24.7046 35.4522C24.6693 45.8472 24.6817 54.107 24.7416 60.2322C24.7732 62.9989 27.1132 63.4872 29.4109 63.2457C29.6152 63.2247 29.717 63.3173 29.717 63.5239L29.7118 65.8654C29.7118 66.0263 29.6308 66.1069 29.4689 66.1069L10.9397 66.1017C10.8658 66.1017 10.8288 66.0665 10.8288 65.9967L10.8235 63.4084C10.82 63.2824 10.8834 63.2262 11.0137 63.2404C15.0755 63.6342 15.7463 61.9699 15.7358 58.6572C15.7111 50.957 15.7041 43.2342 15.7146 35.4889C15.7146 35.2752 15.6072 35.165 15.3924 35.1582Z" fill="white"/>
<path d="M67.456 49.7794L54.1085 49.7742C53.8726 49.7742 53.7546 49.8912 53.7546 50.1259C53.7509 53.3738 53.7598 56.6341 53.7809 59.9067C53.7969 62.6157 55.4235 63.2877 57.8534 63.2824C57.9472 63.2824 58.0373 63.3194 58.1037 63.3853C58.17 63.4515 58.2071 63.5407 58.2071 63.6342L58.2019 65.7499C58.2019 65.9914 58.0823 66.1122 57.8427 66.1122L40.6763 66.1017C40.4439 66.1017 40.3276 65.9877 40.3276 65.7604L40.3067 63.6184C40.3067 63.5265 40.3433 63.4383 40.4086 63.3732C40.4742 63.3084 40.5627 63.2719 40.6552 63.2719C43.4229 63.2667 44.8068 62.5107 44.8068 59.6809C44.8034 52.6842 44.7964 45.5637 44.7857 38.3187C44.7804 35.5362 43.1535 34.8904 40.6868 34.9114C40.4298 34.9114 40.3031 34.7854 40.3067 34.5334L40.3224 32.6172C40.326 32.2565 40.5092 32.0746 40.8717 32.0712L57.7795 32.0659C58.0611 32.0659 58.2019 32.2077 58.2019 32.4912L58.2071 34.4284C58.2071 34.7749 58.0329 34.9429 57.6844 34.9324C55.5505 34.8694 53.8972 35.5782 53.8233 38.0247C53.7386 40.5935 53.7193 43.3707 53.765 46.3564C53.765 46.5349 53.8549 46.6242 54.0346 46.6242H67.6355C67.6747 46.6242 67.7123 46.6087 67.7403 46.5811C67.7679 46.5536 67.7834 46.516 67.7834 46.4772C67.7588 43.9606 67.757 41.3442 67.7781 38.6284C67.7993 36.5809 67.1392 35.1057 64.778 34.9639C64.4117 34.9429 64.0544 34.9114 63.7059 34.8694C63.5262 34.8447 63.4381 34.7434 63.4418 34.5649L63.4575 32.4072C63.4575 32.1867 63.5685 32.0764 63.7903 32.0764L80.7824 32.0659C81.0852 32.0659 81.2385 32.2163 81.2419 32.5174L81.2526 34.4967C81.2526 34.7626 81.117 34.8991 80.8459 34.9062C78.7012 34.9534 76.8157 35.3997 76.7946 37.9827C76.7347 45.4235 76.7295 52.7892 76.7786 60.0799C76.7946 62.6839 78.7276 63.4294 80.9674 63.2562C81.0055 63.2533 81.0439 63.2583 81.0802 63.2709C81.1163 63.2837 81.1494 63.3037 81.1774 63.3299C81.2051 63.3562 81.2273 63.3879 81.2419 63.4231C81.2568 63.4583 81.2638 63.4964 81.2631 63.5344L81.2315 65.8602C81.2315 66.0282 81.1452 66.1122 80.9726 66.1122L63.6688 66.1017C63.5385 66.1017 63.4716 66.0368 63.4682 65.9074L63.4259 63.4452C63.4259 63.3402 63.4768 63.2892 63.5789 63.2929C66.3432 63.3837 67.7324 62.339 67.7465 60.1587C67.7677 56.9386 67.7763 53.5838 67.7729 50.0944C67.7729 49.8844 67.6674 49.7794 67.456 49.7794Z" fill="white"/>
<path d="M97.3584 50.1784C97.2984 53.5804 97.3195 57.0087 97.4217 60.4632C97.522 63.9807 104.663 63.1932 106.639 62.6682C109.697 61.8544 111.551 58.0324 112.238 55.2132C112.287 55.0066 112.419 54.905 112.634 54.9087L114.863 54.9244C115.071 54.9278 115.173 55.031 115.169 55.2342L114.953 65.7709C114.946 65.9948 114.829 66.1069 114.604 66.1069L83.9791 66.1017C83.7432 66.1017 83.6251 65.9843 83.6251 65.7499L83.6094 63.6237C83.6086 63.5777 83.6173 63.5321 83.6348 63.4895C83.6523 63.4467 83.6781 63.4079 83.711 63.3753C83.744 63.3425 83.7834 63.3165 83.8265 63.2987C83.8699 63.2811 83.9164 63.2719 83.9631 63.2719C86.8418 63.2614 88.3789 62.7522 88.3684 59.6232C88.3543 52.5777 88.3543 45.6965 88.3684 38.9802C88.3736 36.4707 87.7611 34.8274 84.745 34.8747C84.4456 34.8815 84.1517 34.8694 83.8628 34.8379C83.7928 34.83 83.7283 34.7975 83.6815 34.746C83.6348 34.6946 83.6089 34.6282 83.6094 34.5597L83.6199 32.2917C83.6199 32.1447 83.6956 32.0712 83.8471 32.0712L112.481 32.0659C112.695 32.0659 112.808 32.1725 112.819 32.3862L113.299 40.5342C113.314 40.793 113.188 40.9208 112.924 40.9174L110.764 40.8754C110.577 40.8717 110.449 40.7843 110.378 40.6129C109.533 38.5602 108.561 35.8144 106.28 35.3314C103.66 34.7802 100.485 35.1267 97.7281 35.0322C97.6779 35.0306 97.628 35.0393 97.5813 35.0571C97.5345 35.075 97.4919 35.1017 97.4559 35.1359C97.4201 35.1702 97.3914 35.2112 97.372 35.2566C97.3524 35.3018 97.3425 35.3503 97.3425 35.3997V46.5822C97.3425 46.6389 97.3645 46.6935 97.4036 46.7344C97.4431 46.7754 97.4969 46.7998 97.5538 46.8027C98.9026 46.8447 100.277 46.8147 101.679 46.7134C103.919 46.5507 104.32 44.6817 104.315 42.8652C104.315 42.7927 104.344 42.7232 104.395 42.672C104.447 42.6208 104.517 42.5922 104.589 42.5922L106.929 42.5974C107.126 42.5974 107.225 42.6935 107.225 42.8862V54.0792C107.225 54.1351 107.199 54.1632 107.146 54.1632L104.5 54.1789C104.397 54.1789 104.348 54.128 104.352 54.0267C104.447 51.4647 103.582 50.1065 101.758 49.9527C100.487 49.8477 99.1207 49.8214 97.6594 49.8739C97.4622 49.8807 97.3618 49.9823 97.3584 50.1784Z" fill="white"/>
<path d="M144.778 48.2149C148.222 45.0822 151.453 42.1107 154.471 39.3004C156.14 37.7464 157.46 34.7749 153.446 34.9167C153.189 34.9235 153.06 34.7993 153.06 34.5439L153.071 32.4282C153.071 32.1901 153.191 32.0712 153.43 32.0712L168.114 32.0659C168.184 32.0659 168.219 32.1008 168.219 32.1709L168.241 34.6647C168.244 34.787 168.184 34.8537 168.061 34.8642C162.694 35.2684 158.358 39.9094 154.608 43.5109C154.551 43.5647 154.514 43.6369 154.506 43.7149C154.497 43.7926 154.516 43.8711 154.56 43.9362C157.789 48.7066 161.006 53.4473 164.21 58.1584C166.033 60.8412 167.929 63.3402 171.505 63.2667C173.787 63.221 174.931 62.0749 174.938 59.8279C174.963 51.3578 174.959 44.1514 174.928 38.2084C174.912 35.3419 172.936 34.8589 170.543 34.8957C170.47 34.8957 170.433 34.8571 170.433 34.7802L170.454 32.1867C170.454 32.1095 170.494 32.0712 170.575 32.0712L188.185 32.0659C188.283 32.0659 188.378 32.1045 188.447 32.1735C188.516 32.2423 188.555 32.3358 188.555 32.4334L188.576 34.5439C188.576 34.7502 188.474 34.8623 188.27 34.8799C186.627 35.0112 184.979 34.8799 184.34 36.4549C184.076 37.1059 183.942 37.7952 183.939 38.5234C183.921 46.0309 183.931 53.2549 183.97 60.1954C183.981 62.7889 186.057 63.4872 188.254 63.2614C188.462 63.2404 188.566 63.3331 188.566 63.5397V65.7342C188.566 65.9825 188.441 66.1069 188.19 66.1069L152.342 66.1017C152.254 66.1017 152.21 66.0597 152.21 65.9757L152.157 63.3927C152.157 63.3297 152.19 63.2982 152.257 63.2982C153.409 63.3244 155.088 63.2457 155.891 62.3007C155.956 62.2264 156.002 62.1374 156.024 62.0413C156.046 61.9452 156.044 61.845 156.018 61.7494C155.874 61.2068 155.654 60.7152 155.358 60.2742C153.034 56.8302 150.616 53.309 148.106 49.7112C147.993 49.55 147.864 49.5361 147.72 49.6692L144.741 52.4464C144.582 52.5934 144.503 52.7735 144.503 52.9872C144.479 55.1326 144.484 57.4812 144.519 60.0327C144.556 62.4634 146.025 63.3927 148.422 63.2877C148.63 63.2772 148.734 63.3769 148.734 63.5869L148.713 65.7919C148.71 66.0053 148.6 66.1122 148.386 66.1122L131.298 66.0964C131.01 66.0964 130.865 65.9528 130.865 65.6659V63.7444C130.869 63.3769 131.054 63.2142 131.42 63.2562C133.67 63.5134 135.44 62.5947 135.461 60.1167C135.521 52.9347 135.522 45.5899 135.466 38.0824C135.445 35.4207 133.57 34.7907 131.282 34.9114C131.001 34.9253 130.862 34.7941 130.865 34.5177V32.5017C130.869 32.2145 131.015 32.0712 131.304 32.0712L148.924 32.0659C149.055 32.0659 149.12 32.1305 149.12 32.2602L149.157 34.7172C149.157 34.7416 149.152 34.7655 149.142 34.788C149.133 34.8104 149.119 34.8306 149.102 34.8471C149.085 34.8639 149.064 34.8768 149.042 34.8852C149.019 34.8936 148.996 34.897 148.972 34.8957C145.713 34.7854 144.472 35.7672 144.488 38.7282C144.509 42.0357 144.503 45.1523 144.472 48.0784C144.468 48.3582 144.57 48.4039 144.778 48.2149Z" fill="white"/>
<path d="M212.986 35.4784C212.972 45.1032 212.979 53.3108 213.007 60.1009C213.023 62.9989 215.114 63.3822 217.491 63.2719C217.812 63.2543 217.972 63.4066 217.972 63.7287L217.961 65.6292C217.961 65.951 217.801 66.1122 217.481 66.1122L199.242 66.1017C199.087 66.1017 199.009 66.0229 199.009 65.8654V63.5344C199.009 63.4974 199.017 63.4607 199.032 63.4268C199.046 63.3929 199.068 63.3625 199.096 63.3373C199.123 63.3121 199.155 63.2927 199.19 63.2806C199.225 63.2685 199.263 63.2638 199.3 63.2667C201.856 63.4294 203.953 62.9464 203.969 59.9067C203.997 52.0947 204.003 43.9587 203.985 35.4994C203.985 35.2928 203.881 35.1844 203.674 35.1739C201.571 35.0757 199.805 35.1458 198.376 35.3839C195.602 35.8512 194.462 39.1639 194.367 41.6209C194.363 41.7049 194.319 41.7485 194.234 41.7522L191.599 41.7679C191.486 41.7679 191.43 41.7117 191.43 41.5999L191.44 32.3914C191.44 32.1777 191.548 32.0712 191.762 32.0712L225.377 32.0659C225.588 32.0659 225.694 32.1725 225.694 32.3862L225.699 41.4739C225.699 41.6663 225.603 41.7627 225.409 41.7627H223.053C222.874 41.7627 222.766 41.675 222.731 41.5002C222.234 39.0012 221.283 36.0769 218.537 35.4732C217.079 35.1511 215.325 35.0495 213.276 35.1687C213.082 35.1792 212.986 35.2823 212.986 35.4784Z" fill="white"/>
<path d="M279.168 46.6189L292.49 46.6242C292.728 46.6242 292.848 46.505 292.848 46.2672C292.858 43.4671 292.848 40.7652 292.817 38.1612C292.785 35.3997 290.946 34.8852 288.608 34.8799C288.538 34.8799 288.504 34.8466 288.506 34.7802L288.533 32.1919C288.533 32.1113 288.574 32.0712 288.655 32.0712L305.763 32.0659C306.134 32.0659 306.319 32.2497 306.322 32.6172L306.343 34.4232C306.348 34.745 306.186 34.9077 305.862 34.9114C303.122 34.9219 301.813 35.7252 301.829 38.6127C301.852 45.5671 301.85 52.5758 301.824 59.6389C301.808 62.4792 303.195 63.3139 305.943 63.2719C306.21 63.2682 306.343 63.3995 306.338 63.6657L306.327 65.6187C306.327 65.9442 306.163 66.1069 305.831 66.1069L288.645 66.1017C288.574 66.1017 288.538 66.0683 288.538 66.0019L288.506 63.4977C288.504 63.3575 288.574 63.2892 288.718 63.2929C291.411 63.3627 292.772 62.3285 292.801 60.1902C292.848 56.8302 292.861 53.4702 292.843 50.1102C292.84 49.8897 292.728 49.7794 292.511 49.7794L279.142 49.7742C278.906 49.7742 278.789 49.8931 278.794 50.1312C278.854 52.4795 278.857 54.9102 278.805 57.4234C278.739 60.5104 278.52 63.4924 282.997 63.2614C283.164 63.2543 283.245 63.3331 283.245 63.4977L283.24 65.8707C283.24 65.9347 283.214 65.9961 283.17 66.0413C283.125 66.0867 283.062 66.1122 282.997 66.1122L265.524 66.1017C265.448 66.1017 265.409 66.0649 265.409 65.9914L265.388 63.4189C265.388 63.3992 265.391 63.3801 265.398 63.362C265.406 63.3441 265.419 63.3281 265.432 63.3147C265.448 63.3013 265.464 63.2911 265.482 63.2848C265.5 63.2782 265.521 63.2756 265.54 63.2772C268.408 63.4415 269.845 62.318 269.855 59.9067C269.894 52.4517 269.899 45.3237 269.865 38.5234C269.85 35.5152 268.199 34.8169 265.493 34.8957C265.419 34.8957 265.383 34.8589 265.383 34.7854L265.404 32.1867C265.406 32.1095 265.445 32.0712 265.519 32.0712L282.872 32.0659C283.12 32.0659 283.245 32.1901 283.245 32.4387V34.5229C283.245 34.7854 283.115 34.9167 282.851 34.9167C280.662 34.9272 278.951 35.4679 278.899 37.9932C278.836 40.6216 278.805 43.3778 278.81 46.2619C278.81 46.4997 278.93 46.6189 279.168 46.6189Z" fill="white"/>
<path d="M322.416 46.6137C322.416 46.6628 322.437 46.71 322.471 46.7454C322.505 46.7806 322.552 46.8014 322.602 46.8027C323.934 46.8447 325.245 46.8252 326.538 46.7449C329.153 46.5927 329.072 44.9442 329.388 42.8599C329.417 42.6777 329.524 42.5869 329.712 42.5869L331.972 42.6079C332.181 42.6079 332.285 42.7111 332.285 42.9177V53.7694C332.285 54.0387 332.149 54.1737 331.883 54.1737H329.832C329.516 54.1737 329.375 54.0162 329.412 53.7012C329.595 52.0947 328.787 50.2099 327.123 50.0104C325.836 49.8529 324.378 49.8038 322.756 49.8634C322.542 49.8702 322.432 49.9805 322.427 50.1942C322.395 53.834 322.411 57.2675 322.476 60.4947C322.539 63.7759 328.952 63.1932 330.948 62.8572C334.513 62.2639 336.483 58.4419 337.301 55.1922C337.35 55.0032 337.476 54.9087 337.672 54.9087L339.905 54.9192C339.95 54.9197 339.994 54.9294 340.036 54.9473C340.078 54.9651 340.114 54.9908 340.145 55.0231C340.177 55.0554 340.2 55.0935 340.216 55.1349C340.232 55.1767 340.24 55.221 340.24 55.2657L339.991 65.7552C339.986 65.9896 339.866 66.1069 339.631 66.1069L308.832 66.1017C308.752 66.1017 308.71 66.0631 308.71 65.9862L308.689 63.3927C308.689 63.305 308.733 63.263 308.822 63.2667C311.758 63.4504 313.433 62.7417 313.433 59.4919C313.43 52.7787 313.422 45.7789 313.412 38.4919C313.407 35.3787 311.609 34.6384 308.801 34.8694C308.723 34.8762 308.684 34.8395 308.684 34.7592L308.705 32.2549C308.705 32.1323 308.77 32.0712 308.895 32.0712L337.646 32.0659C337.703 32.0659 337.76 32.0882 337.802 32.1281C337.844 32.1683 337.87 32.2232 337.873 32.2812L338.353 40.5762C338.367 40.814 338.257 40.9295 338.019 40.9227L335.796 40.8754C335.603 40.8683 335.472 40.7738 335.407 40.5919C334.487 37.9932 333.252 35.1582 330.013 35.1057C327.494 35.0637 325.057 35.0461 322.698 35.0532C322.515 35.0532 322.421 35.144 322.421 35.3262L322.416 46.6137Z" fill="white"/>
<path d="M351.295 42.3045C351.324 47.8485 351.342 53.2526 351.352 58.5165C351.36 61.6631 352.922 63.2502 356.039 63.2783C356.13 63.2817 356.175 63.3289 356.175 63.42L356.169 65.9873C356.169 66.0224 356.154 66.0558 356.13 66.0802C356.104 66.1049 356.073 66.1185 356.039 66.1185L343.45 66.0975C343.369 66.0975 343.33 66.0589 343.33 65.982L343.32 63.42C343.32 63.3641 343.346 63.3342 343.403 63.3308C347.016 63.0578 348.077 61.1048 348.04 57.8025C347.975 52.0661 347.977 46.3714 348.05 40.719C348.092 37.401 347.115 34.9598 343.275 34.8968C343.168 34.8934 343.113 34.8372 343.113 34.7288L343.139 32.277C343.139 32.1405 343.205 32.0723 343.341 32.0723L354.411 32.067C354.615 32.067 354.785 32.1439 354.923 32.298L373.136 52.5263C373.326 52.7397 373.423 52.7029 373.426 52.416C373.444 48.1286 373.434 43.974 373.394 39.9525C373.358 36.7429 371.858 35.049 368.893 34.8705C368.763 34.86 368.7 34.7918 368.703 34.6658L368.713 32.298C368.713 32.2691 368.721 32.2403 368.732 32.2135C368.742 32.187 368.758 32.1626 368.779 32.1421C368.799 32.1216 368.823 32.1053 368.852 32.0943C368.878 32.0833 368.907 32.0775 368.935 32.0775L380.873 32.0618C380.962 32.0618 381.006 32.1072 381.012 32.1983L381.053 34.6553C381.056 34.7813 380.993 34.8529 380.868 34.8705C378.104 35.2136 376.722 36.8025 376.722 39.6375C376.717 48.7061 376.717 57.6117 376.722 66.3548C376.722 66.5824 376.607 66.696 376.378 66.696L373.789 66.6908C373.562 66.6874 373.371 66.6015 373.219 66.4335L351.616 42.1838C351.402 41.9457 351.295 41.9861 351.295 42.3045Z" fill="white"/>
</svg>
