<svg width="94" height="112" viewBox="0 0 94 112" fill="none" xmlns="http://www.w3.org/2000/svg">
<path d="M52.3674 10.8251L50.8665 20.2178C50.8648 20.2281 50.8592 20.2374 50.8507 20.2436C50.8423 20.2498 50.8318 20.2526 50.8214 20.2512C49.8213 20.1106 48.8257 20.021 47.8347 19.9824C47.8079 19.9815 47.7951 19.9677 47.7965 19.9409L48.218 10.4753C48.2193 10.4481 48.2064 10.4341 48.179 10.4331C47.3542 10.4032 46.5591 10.3962 45.7935 10.4121C45.7883 10.4121 45.7831 10.4112 45.7783 10.4094C45.7734 10.4075 45.769 10.4047 45.7653 10.4012C45.7615 10.3976 45.7585 10.3934 45.7565 10.3887C45.7544 10.3841 45.7533 10.379 45.7532 10.374L45.6992 8.06318C45.6988 8.03506 45.7127 8.02077 45.7409 8.02032C48.9553 7.96089 52.1467 8.24894 55.3151 8.88447C55.3188 8.8852 55.3222 8.88664 55.3253 8.88872C55.3284 8.8908 55.331 8.89347 55.3331 8.89657C55.3351 8.89968 55.3365 8.90316 55.3372 8.9068C55.3378 8.91045 55.3378 8.91419 55.337 8.91781L54.8123 11.2C54.8107 11.2075 54.8061 11.214 54.7996 11.2182C54.7931 11.2224 54.7852 11.2239 54.7775 11.2225C53.9818 11.0619 53.1839 10.9253 52.3837 10.8128C52.3742 10.8115 52.3687 10.8156 52.3674 10.8251Z" fill="white"/>
<path d="M42.1914 20.2429L40.2601 8.49926C40.2595 8.4955 40.2597 8.49165 40.2606 8.48796C40.2615 8.48426 40.2631 8.48079 40.2653 8.47775C40.2675 8.4747 40.2703 8.47215 40.2735 8.47024C40.2768 8.46832 40.2803 8.46709 40.284 8.4666C41.7546 8.25567 43.2079 8.11822 44.6438 8.05426C44.6639 8.05335 44.6746 8.06288 44.6759 8.08284L45.26 19.9558C45.2602 19.9596 45.2596 19.9635 45.2583 19.9671C45.257 19.9707 45.255 19.974 45.2524 19.9769C45.2498 19.9797 45.2467 19.982 45.2432 19.9837C45.2397 19.9853 45.2359 19.9862 45.232 19.9864C44.2182 20.0327 43.2163 20.1266 42.2262 20.2681C42.2182 20.2691 42.21 20.2671 42.2035 20.2624C42.197 20.2577 42.1927 20.2507 42.1914 20.2429Z" fill="white"/>
<path d="M35.672 16.6341L37.3689 21.3516C37.3708 21.3567 37.3716 21.3621 37.3713 21.3675C37.371 21.3729 37.3696 21.3781 37.3673 21.383C37.3649 21.3878 37.3616 21.3921 37.3575 21.3956C37.3535 21.3991 37.3488 21.4017 37.3436 21.4033C36.3941 21.7095 35.4643 22.0662 34.5544 22.4736C34.5339 22.4822 34.5189 22.4768 34.5093 22.4573L29.204 11.6873C29.2024 11.6839 29.2014 11.6802 29.2012 11.6763C29.201 11.6725 29.2016 11.6687 29.2029 11.6651C29.2043 11.6615 29.2063 11.6582 29.209 11.6553C29.2116 11.6525 29.2148 11.6502 29.2184 11.6485C30.5596 11.052 31.9102 10.5337 33.2701 10.0937C33.2817 10.0899 33.2945 10.0908 33.3056 10.0962C33.3167 10.1017 33.3253 10.1113 33.3295 10.123L34.8454 14.3376C34.8782 14.4283 34.8955 14.4256 34.8973 14.3294C34.9246 12.7336 35.0255 11.138 35.2 9.54256C35.2008 9.53574 35.2036 9.52932 35.2081 9.52411C35.2126 9.5189 35.2186 9.51514 35.2252 9.5133C36.5396 9.15812 37.8713 8.86485 39.2202 8.6335C39.2247 8.63268 39.2293 8.633 39.2337 8.63442C39.238 8.63585 39.2419 8.63833 39.2451 8.64165C39.2482 8.64496 39.2504 8.64901 39.2516 8.65341C39.2527 8.65781 39.2528 8.66243 39.2517 8.66684C38.829 10.2917 38.4893 11.945 38.2324 13.6265C38.196 13.8652 38.1641 14.1035 38.1368 14.3417C38.134 14.363 38.1388 14.3825 38.1511 14.4002C39.4536 16.3036 40.6232 18.2796 41.6597 20.3282C41.6614 20.3314 41.6622 20.335 41.6622 20.3387C41.6622 20.3423 41.6614 20.3459 41.6597 20.3492C41.658 20.3524 41.6556 20.3552 41.6527 20.3574C41.6497 20.3595 41.6463 20.3609 41.6426 20.3615C40.6539 20.5212 39.6447 20.7412 38.615 21.0215C38.5867 21.0293 38.5651 21.0206 38.5501 20.9957C37.6215 19.4357 36.6689 17.9784 35.6925 16.6239C35.6597 16.579 35.6529 16.5824 35.672 16.6341Z" fill="white"/>
<path d="M59.0295 14.0715C58.5049 15.4659 57.9397 16.9618 57.334 18.559C57.2042 18.9015 57.1088 19.2231 57.0477 19.5238C56.976 19.877 57.3114 20.0784 57.6086 20.0988C57.8021 20.1124 57.9543 20.0274 58.0649 19.8436C58.2375 19.557 58.4003 19.2322 58.5534 18.8693C58.7451 18.4156 58.9389 17.9593 59.1347 17.5002C59.1447 17.4766 59.1616 17.4694 59.1853 17.4784C60.332 17.9207 61.4084 18.4047 62.4145 18.9305C62.4186 18.9327 62.4216 18.9364 62.423 18.9407C62.4244 18.9451 62.4241 18.9497 62.422 18.9536C62.0294 19.6967 61.6049 20.3748 61.1486 20.9881C60.6848 21.6121 60.1724 21.9666 59.4319 22.151C58.7137 22.3302 58.005 22.3293 57.3059 22.1483C56.1842 21.8571 54.9963 21.3073 54.3541 20.3485C54.0262 19.8586 53.9196 19.332 53.9476 18.7407C53.9759 18.1537 54.0715 17.5311 54.2346 16.8729C54.6185 15.321 54.9719 13.9313 55.2948 12.7038C55.3827 12.3695 55.4908 12.0216 55.6193 11.66C55.7304 11.3479 55.8659 11.0957 56.0257 10.9034C57.1755 9.52005 59.3875 9.682 60.9368 10.1794C62.3304 10.6271 63.6482 11.3395 64.4523 12.546C64.8653 13.1665 64.9637 13.8179 64.7474 14.5002C64.4482 15.4433 63.9652 16.2686 63.4248 17.1818C63.4121 17.2031 63.3948 17.2081 63.3729 17.1967C62.2667 16.6279 61.124 16.1149 59.9449 15.6576C59.9392 15.6552 59.9346 15.6506 59.9322 15.6449C59.9298 15.6392 59.9297 15.6328 59.9319 15.627C60.2084 14.9719 60.4775 14.3403 60.7394 13.732C60.871 13.4262 60.9733 13.132 61.0461 12.8494C61.1582 12.4174 60.7565 12.2425 60.417 12.1581C60.12 12.0846 59.9005 12.1581 59.7584 12.3786C59.4373 12.8773 59.242 13.5067 59.0295 14.0715Z" fill="white"/>
<path d="M67.5771 21.9957L66.7492 21.3561C66.7471 21.3545 66.7447 21.3533 66.7422 21.3526C66.7397 21.3518 66.737 21.3516 66.7344 21.352C66.7318 21.3523 66.7293 21.3531 66.727 21.3544C66.7248 21.3557 66.7227 21.3574 66.7211 21.3595L63.5937 25.3401C63.5897 25.3453 63.5838 25.3487 63.5771 25.3496C63.5705 25.3505 63.5637 25.3488 63.5582 25.3448C62.7439 24.7447 61.9027 24.1951 61.0347 23.6961C61.0295 23.693 61.0257 23.688 61.0242 23.6821C61.0227 23.6763 61.0235 23.6701 61.0265 23.6648L67.3708 13.4174C67.3754 13.4101 67.3827 13.4048 67.3912 13.4027C67.3997 13.4005 67.4088 13.4017 67.4166 13.4059C68.6713 14.1244 69.888 14.9192 71.0666 15.7901C71.0691 15.7919 71.0712 15.7943 71.0727 15.797C71.0743 15.7996 71.0753 15.8026 71.0757 15.8057C71.0761 15.8088 71.0758 15.812 71.075 15.815C71.0741 15.8181 71.0727 15.821 71.0707 15.8235L68.4201 19.1977C68.4157 19.2035 68.4137 19.2109 68.4145 19.2181C68.4154 19.2254 68.4192 19.232 68.4249 19.2365L69.3102 19.9204C69.3176 19.9259 69.3268 19.9283 69.3359 19.9273C69.3451 19.9263 69.3535 19.9219 69.3594 19.9149L72.12 16.6332C72.13 16.6214 72.1412 16.6202 72.1535 16.6298C73.2866 17.5361 74.3707 18.5207 75.4059 19.5836C75.4094 19.587 75.4121 19.5911 75.4139 19.5957C75.4157 19.6002 75.4166 19.605 75.4166 19.6099C75.4165 19.6148 75.4155 19.6196 75.4135 19.6241C75.4116 19.6285 75.4088 19.6326 75.4052 19.6359L66.6235 27.9699C66.6021 27.9904 66.5809 27.9899 66.5599 27.9686C65.8768 27.2618 65.1331 26.5855 64.3288 25.9395C64.3259 25.9373 64.3235 25.9344 64.3218 25.9312C64.3201 25.928 64.319 25.9244 64.3187 25.9207C64.3184 25.917 64.3188 25.9133 64.32 25.9098C64.3211 25.9062 64.3229 25.9029 64.3254 25.9001L67.5805 22.0297C67.5826 22.0272 67.5842 22.0244 67.5852 22.0213C67.5862 22.0182 67.5865 22.015 67.5862 22.0118C67.5859 22.0086 67.5849 22.0055 67.5833 22.0028C67.5818 22 67.5797 21.9976 67.5771 21.9957Z" fill="white"/>
<path d="M26.4367 21.4155L28.0393 23.4486C28.0454 23.4562 28.0542 23.4611 28.0638 23.4624C28.0733 23.4636 28.0829 23.4612 28.0906 23.4554C28.7364 22.9764 29.3951 22.5298 30.0669 22.1157C30.0727 22.1122 30.0795 22.111 30.086 22.1124C30.0925 22.1138 30.0982 22.1177 30.1017 22.1231L31.4127 24.0998C31.4148 24.103 31.4163 24.1066 31.417 24.1104C31.4177 24.1141 31.4176 24.118 31.4168 24.1218C31.416 24.1255 31.4144 24.1291 31.4121 24.1322C31.4099 24.1353 31.4071 24.138 31.4038 24.14C29.895 25.0717 28.5046 26.145 27.2325 27.3598C27.228 27.3642 27.2219 27.3666 27.2155 27.3665C27.2091 27.3663 27.203 27.3637 27.1984 27.3591L18.6714 18.7298C18.6691 18.7275 18.6672 18.7247 18.666 18.7217C18.6647 18.7187 18.6641 18.7155 18.6641 18.7122C18.6641 18.709 18.6647 18.7058 18.666 18.7029C18.6672 18.6999 18.6691 18.6973 18.6714 18.6951C20.4276 17.014 22.3563 15.5125 24.4576 14.1906C24.4635 14.1869 24.4705 14.1857 24.4773 14.1871C24.484 14.1885 24.4899 14.1924 24.4938 14.1981L25.8171 16.1612C25.8195 16.1648 25.8212 16.1688 25.822 16.1731C25.8228 16.1773 25.8228 16.1817 25.8219 16.1859C25.821 16.1902 25.8193 16.1942 25.8168 16.1978C25.8143 16.2014 25.8112 16.2044 25.8075 16.2067C25.0287 16.698 24.2834 17.2077 23.5716 17.7357C23.5688 17.7378 23.5664 17.7405 23.5646 17.7435C23.5628 17.7466 23.5616 17.75 23.5612 17.7535C23.5608 17.7571 23.561 17.7607 23.562 17.7642C23.5629 17.7677 23.5646 17.7709 23.5668 17.7738L24.957 19.5382C24.9624 19.5447 24.97 19.5489 24.9785 19.5499C24.9869 19.5509 24.9953 19.5487 25.0021 19.5436C25.6515 19.0623 26.2994 18.6164 26.9456 18.2059C26.9548 18.2002 26.9659 18.1983 26.9765 18.2006C26.9871 18.2028 26.9963 18.2091 27.0023 18.2181L28.2593 20.0635C28.2618 20.067 28.2635 20.0711 28.2644 20.0754C28.2653 20.0797 28.2652 20.0841 28.2644 20.0884C28.2635 20.0927 28.2617 20.0968 28.2592 20.1005C28.2567 20.1042 28.2535 20.1073 28.2497 20.1097C27.6331 20.5021 27.0317 20.9154 26.4456 21.3495C26.4201 21.3685 26.4171 21.3905 26.4367 21.4155Z" fill="white"/>
<path d="M18.0051 26.077C18.007 26.0743 18.0084 26.0713 18.0091 26.068C18.0099 26.0648 18.01 26.0615 18.0095 26.0583C18.009 26.0551 18.0079 26.052 18.0062 26.0493C18.0045 26.0465 18.0022 26.0441 17.9996 26.0423L14.5265 23.4995C14.5209 23.4953 14.5171 23.4891 14.5161 23.4821C14.5151 23.4751 14.5169 23.4679 14.5211 23.4621C15.3937 22.2536 16.3419 21.1039 17.3657 20.0129C17.3716 20.0065 17.38 20.0026 17.3888 20.0022C17.3976 20.0018 17.4063 20.005 17.4128 20.0109L26.3086 28.234C26.3278 28.2521 26.3284 28.2707 26.3107 28.2898C25.608 29.0428 24.9581 29.8319 24.361 30.657C24.3583 30.6608 24.3548 30.6641 24.3508 30.6666C24.3469 30.669 24.3424 30.6707 24.3378 30.6715C24.3331 30.6722 24.3284 30.6721 24.3238 30.671C24.3192 30.6699 24.3149 30.6679 24.3111 30.6652L20.2314 27.6774C20.228 27.6749 20.2242 27.6731 20.2201 27.6722C20.216 27.6712 20.2118 27.6711 20.2076 27.6718C20.2035 27.6725 20.1995 27.674 20.196 27.6762C20.1925 27.6785 20.1894 27.6814 20.187 27.6849L19.5797 28.5653C19.5752 28.5719 19.5735 28.5799 19.5749 28.5876C19.5763 28.5954 19.5807 28.6023 19.5872 28.6069L23.781 31.4606C23.7829 31.4618 23.7846 31.4634 23.7858 31.4653C23.7871 31.4672 23.788 31.4693 23.7884 31.4715C23.7889 31.4737 23.7889 31.476 23.7884 31.4782C23.788 31.4804 23.7871 31.4826 23.7858 31.4844C23.1878 32.3926 22.6573 33.3241 22.1941 34.279C22.1929 34.2813 22.1913 34.2834 22.1893 34.2852C22.1874 34.2869 22.185 34.2882 22.1825 34.289C22.1799 34.2899 22.1772 34.2902 22.1745 34.29C22.1718 34.2898 22.1692 34.289 22.1668 34.2878L11.421 28.7021C11.4154 28.6992 11.4113 28.6942 11.4094 28.6884C11.4074 28.6825 11.4079 28.6762 11.4107 28.6708C12.0898 27.275 12.8544 25.9325 13.7047 24.6433C13.7165 24.6252 13.7316 24.6222 13.7498 24.6345L17.3021 27.0521C17.3047 27.0539 17.3076 27.0551 17.3107 27.0558C17.3138 27.0565 17.317 27.0565 17.3201 27.056C17.3233 27.0554 17.3262 27.0542 17.3289 27.0525C17.3315 27.0508 17.3338 27.0485 17.3356 27.0459L18.0051 26.077Z" fill="white"/>
<path d="M77.3692 25.9635L75.5165 27.2291C75.5122 27.232 75.5092 27.2365 75.5082 27.2416C75.5072 27.2467 75.5082 27.252 75.5111 27.2563C75.9792 27.9608 76.414 28.6778 76.8152 29.4072C76.8189 29.4139 76.8199 29.4218 76.8178 29.4291C76.8158 29.4365 76.8109 29.4428 76.8043 29.4467L74.8546 30.5782C74.8364 30.5887 74.8225 30.585 74.8129 30.5673C74.439 29.8905 74.0357 29.2253 73.6031 28.5716C73.601 28.5684 73.5982 28.5657 73.595 28.5635C73.5918 28.5614 73.5882 28.56 73.5844 28.5593C73.5805 28.5586 73.5766 28.5586 73.5728 28.5595C73.5689 28.5603 73.5653 28.5619 73.5621 28.5641L71.3952 30.0434C71.3894 30.0474 71.3854 30.0535 71.3841 30.0604C71.3829 30.0673 71.3844 30.0744 71.3883 30.0801C71.8442 30.7683 72.2769 31.4939 72.6863 32.2569C72.6896 32.2629 72.6904 32.2699 72.6886 32.2764C72.6869 32.2829 72.6826 32.2883 72.6767 32.2916L70.6034 33.4599C70.5999 33.4619 70.596 33.4633 70.5919 33.4638C70.5879 33.4644 70.5838 33.4641 70.5798 33.463C70.5759 33.4619 70.5723 33.46 70.5692 33.4575C70.5661 33.455 70.5635 33.4519 70.5617 33.4483C69.7028 31.8343 68.6715 30.3358 67.4678 28.9527C67.4496 28.9318 67.4509 28.9125 67.4719 28.8948L76.6239 20.9664C76.6449 20.9478 76.6644 20.9491 76.6827 20.9704C78.3513 22.8888 79.7964 24.9682 81.0179 27.2087C81.0206 27.2139 81.0212 27.2199 81.0195 27.2255C81.0178 27.231 81.0141 27.2358 81.009 27.2386L78.9514 28.4192C78.947 28.4218 78.9421 28.4235 78.937 28.4241C78.9319 28.4248 78.9267 28.4244 78.9217 28.423C78.9168 28.4216 78.9121 28.4192 78.9081 28.416C78.904 28.4128 78.9006 28.4088 78.8981 28.4042C78.4404 27.5705 77.9526 26.7612 77.4348 25.9764C77.4175 25.9497 77.3956 25.9454 77.3692 25.9635Z" fill="white"/>
<path d="M29.1464 35.2936C29.1765 35.2378 29.1829 35.1541 29.1656 35.0425C29.1114 34.6982 29.0652 34.3628 29.0269 34.0362C28.8725 32.7195 29.4095 31.588 30.3583 30.6973C30.6776 30.3974 30.9971 30.0867 31.3168 29.7651C34.2802 26.782 38.0997 24.7897 42.2675 24.0582C42.7339 23.9766 43.1875 23.9147 43.6283 23.8725C48.5488 23.4025 53.1943 24.1737 57.5651 26.186C58.9445 26.8206 60.3664 27.6135 61.8306 28.5648C62.0854 28.7301 62.7624 29.0751 62.2056 29.4044C61.6987 29.7045 61.1679 30.0093 60.6932 30.3754C60.5757 30.4666 60.4761 30.5723 60.3946 30.6925C60.3748 30.7218 60.3638 30.756 60.363 30.7913C60.3621 30.8265 60.3715 30.8612 60.3898 30.8912C60.4349 30.9647 60.4925 31.0255 60.5627 31.0735C60.9967 31.3729 61.4157 31.6834 61.8196 32.0051C62.4966 32.5433 63.2092 33.2503 63.5214 34.0294C63.7122 34.5052 63.8927 35.0307 64.0631 35.6059C64.6961 37.7452 65.2217 39.956 65.6398 42.2382C65.9121 43.7229 66.0715 45.074 66.118 46.2915C66.1407 46.8803 66.1339 47.651 66.0975 48.6037C66.0547 49.7323 65.9035 50.7187 65.6439 51.5629C65.4799 52.0959 65.2939 52.6103 65.0857 53.1061C64.6226 54.2093 64.1412 55.3459 63.6416 56.5158C63.5692 56.6854 63.5166 56.8474 63.4838 57.0016C63.0625 58.9903 62.4613 61.5013 61.6803 64.5347C61.0031 67.1667 60.306 69.4978 59.5892 71.5283C59.1379 72.8066 58.5945 74.03 57.9592 75.1986C57.3758 76.2716 56.7084 77.1262 55.8251 77.9081C55.448 78.2415 55.0887 78.5878 54.7601 78.9586C54.4686 79.288 54.0822 79.5946 53.6008 79.8786C51.9257 80.8673 49.9023 81.4858 47.9881 81.7178C46.9088 81.8491 45.742 81.7831 44.6414 81.6559C43.5848 81.5339 42.6061 81.3293 41.7053 81.0421C40.0361 80.5096 38.5451 79.5964 37.2321 78.3027C35.4266 76.5247 33.9496 74.4684 32.7097 72.2706C31.8776 70.7954 31.1433 69.2665 30.7559 67.6294C29.9462 64.2054 29.1585 60.7948 28.3929 57.3976C28.3693 57.2928 28.326 57.1928 28.2632 57.0976C27.3569 55.7285 26.6817 54.305 26.2376 52.8271C25.9421 51.8437 25.7843 50.9244 25.7642 50.0693C25.7487 49.4238 25.7736 48.6583 25.8387 47.7728C26.1577 43.4391 27.1585 38.9959 29.1464 35.2936ZM46.9047 65.1485C47.3658 65.126 47.9915 65.486 48.3884 65.7241C49.8012 66.5726 51.1729 67.6491 52.4087 68.682C52.7343 68.9542 52.9937 69.3243 53.1868 69.7925C53.8945 71.5072 53.9854 73.4723 54.161 75.3074C54.1655 75.3573 54.1774 75.3902 54.1965 75.4061C54.2147 75.4211 54.2373 75.4304 54.2616 75.4329C54.2859 75.4355 54.311 75.4311 54.3338 75.4204C56.608 74.3405 58.1198 72.1209 59.1144 69.8837C59.5371 68.9338 59.9016 67.8916 60.2081 66.757C60.7105 64.899 61.1595 62.8638 61.5553 60.6515C62.002 58.1543 62.449 55.3227 62.8963 52.1569C63.0589 51.007 62.9837 49.9332 62.3306 48.9418C62.0638 48.5372 61.7639 48.0951 61.4309 47.6157C60.9876 46.9774 60.7669 46.2187 60.6078 45.4451C60.3024 43.9535 60.0496 42.709 59.5803 41.2821C59.3508 40.5836 58.9409 40.0252 58.3507 39.6069C57.3424 38.8918 56.1831 38.4236 55.0046 38.078C53.6853 37.6906 52.3049 37.4014 50.8635 37.2104C47.6277 36.7817 44.5018 36.7681 41.486 37.1696C38.5034 37.5663 35.4915 38.5379 33.3587 40.7392C32.9263 41.1855 32.5061 41.6972 32.0409 42.166C31.7786 42.43 31.5834 42.7519 31.4555 43.1316C31.2405 43.7685 31.0793 44.4639 30.9718 45.2178C30.8525 46.0525 30.7368 46.8976 30.6248 47.7531C30.5182 48.5674 30.3788 49.2709 30.2067 49.8638C30.0967 50.2449 29.9382 50.6375 29.6711 50.9314C29.2057 51.4454 28.9301 52.0979 28.8445 52.8891C28.8044 53.2578 28.8012 53.5577 28.8349 53.7886C29.1451 55.9116 29.5005 58.0833 29.9013 60.3038C30.275 62.3771 30.678 64.4021 31.2444 66.4087C31.381 66.8918 31.5399 67.3447 31.7212 67.7675C31.8401 68.0451 32.0197 68.2989 32.1816 68.5541C32.3087 68.755 32.4271 68.9537 32.5369 69.1501C33.2371 70.4056 33.979 71.5439 34.9716 72.5673C35.9243 73.5494 36.9771 74.4378 38.1297 75.2326C38.1525 75.248 38.1643 75.2421 38.1653 75.2149C38.2281 73.2838 38.3745 71.4863 38.6045 69.8224C38.6491 69.5026 38.7163 69.1765 38.806 68.8439C38.8648 68.6276 38.9891 68.4527 39.151 68.303C39.4562 68.0213 39.8021 67.7571 40.1887 67.5103C41.5482 66.6427 43.0839 65.8861 44.5663 65.1145C44.5803 65.1071 44.596 65.1033 44.6119 65.1035C44.6278 65.1036 44.6434 65.1077 44.6573 65.1153C44.6713 65.1229 44.6831 65.1339 44.6918 65.1471C44.7004 65.1604 44.7057 65.1756 44.707 65.1914C44.7671 65.9271 44.7571 66.6709 44.6769 67.4225C44.6651 67.5355 44.638 67.6432 44.5956 67.7457C44.5875 67.7661 44.5747 67.7834 44.5574 67.7974C44.5014 67.8433 44.4399 67.882 44.3729 67.9138C43.338 68.4003 42.2689 68.8752 41.3309 69.5169C40.9586 69.7721 40.3383 70.281 40.2994 70.7179C40.2069 71.7526 40.0963 72.8687 39.9674 74.0663C39.9214 74.4904 39.8977 74.947 39.8963 75.436C39.8954 75.6828 39.9202 75.9153 39.9708 76.1335C40.0999 76.6962 41.2879 76.8595 41.7449 76.9078C43.1727 77.0589 44.7132 77.0636 46.2031 77.1024C47.4619 77.136 48.6351 77.0811 49.7226 76.9377C50.47 76.8391 51.895 76.6111 52.145 75.7313C52.1833 75.5971 52.191 75.3287 52.1683 74.9264C52.1145 73.9851 51.9861 73.1173 51.783 72.323C51.5675 71.4811 51.1549 70.7823 50.5451 70.2266C49.6973 69.4543 48.6658 68.9358 47.6554 68.3527C47.3391 68.1703 47.0078 67.9226 46.9504 67.5634C46.8329 66.8244 46.7999 66.0369 46.8514 65.2009C46.8524 65.187 46.8584 65.1739 46.8682 65.1643C46.878 65.1546 46.891 65.149 46.9047 65.1485Z" fill="white"/>
<path d="M77.1237 34.935L72.1293 36.9055C72.1029 36.916 72.0851 36.908 72.076 36.8817C71.7727 36.0266 71.4209 35.1827 71.0206 34.3498C71.0105 34.3289 71.0158 34.3131 71.0363 34.3022L81.7636 28.7382C81.7676 28.7361 81.7719 28.7349 81.7764 28.7345C81.7809 28.7341 81.7854 28.7346 81.7897 28.736C81.794 28.7374 81.7979 28.7397 81.8013 28.7426C81.8047 28.7456 81.8074 28.7492 81.8094 28.7532C82.3919 29.9617 82.9035 31.1912 83.3444 32.4419C83.3526 32.4654 83.3483 32.4868 83.3314 32.5058C81.9742 34.0146 80.5506 35.4303 79.0604 36.7531C79.0272 36.7821 79.0317 36.7901 79.0741 36.7769L84.1765 35.1738C84.1797 35.1727 84.1832 35.1724 84.1866 35.1726C84.1901 35.1729 84.1934 35.1739 84.1964 35.1755C84.1994 35.1771 84.202 35.1793 84.2041 35.1819C84.2062 35.1845 84.2077 35.1876 84.2086 35.1908C84.5816 36.5698 84.8858 37.9777 85.1212 39.4143C85.1244 39.432 85.1171 39.4426 85.0994 39.4463L73.3473 41.7462C73.3432 41.7469 73.3389 41.7469 73.3348 41.746C73.3307 41.7451 73.3268 41.7434 73.3234 41.741C73.32 41.7386 73.317 41.7355 73.3148 41.732C73.3126 41.7284 73.3111 41.7244 73.3104 41.7203C73.146 40.7051 72.9242 39.6926 72.6451 38.6828C72.6391 38.6611 72.6453 38.6434 72.6635 38.6298C74.2416 37.478 75.7342 36.2557 77.1415 34.9629C77.1852 34.9225 77.1793 34.9132 77.1237 34.935Z" fill="white"/>
<path d="M12.1461 33.2856L21.0816 36.8396C21.0902 36.8429 21.0971 36.8495 21.101 36.8579C21.1048 36.8663 21.1052 36.8758 21.102 36.8845C20.7163 37.9732 20.4011 39.0818 20.1566 40.2105C20.152 40.2322 20.1388 40.2404 20.117 40.235L10.8283 37.867C10.8252 37.8662 10.822 37.866 10.8188 37.8665C10.8157 37.8669 10.8126 37.868 10.8099 37.8697C10.8071 37.8713 10.8047 37.8735 10.8029 37.8761C10.801 37.8787 10.7997 37.8816 10.7989 37.8847C10.5976 38.8137 10.4282 39.7654 10.2907 40.7398C10.29 40.7441 10.2885 40.7482 10.2863 40.7518C10.284 40.7555 10.2811 40.7587 10.2776 40.7612C10.2741 40.7637 10.2701 40.7656 10.2659 40.7666C10.2617 40.7676 10.2574 40.7677 10.2531 40.7671L7.94137 40.371C7.93473 40.3699 7.9288 40.3662 7.92485 40.3609C7.92089 40.3555 7.91922 40.3489 7.92019 40.3425C8.43573 36.6105 9.43585 33.0679 10.9205 29.7147C10.9301 29.6929 10.9456 29.6873 10.967 29.6977L13.095 30.7306C13.1028 30.7345 13.1089 30.7412 13.112 30.7493C13.115 30.7574 13.1148 30.7663 13.1114 30.7741C12.7493 31.5857 12.4198 32.4058 12.1229 33.2346C12.1142 33.2591 12.122 33.2761 12.1461 33.2856Z" fill="white"/>
<path d="M40.476 51.5949C39.1015 51.0587 37.6081 50.7643 35.9959 50.7117C35.4829 50.6953 34.907 50.7477 34.3946 50.8804C34.0412 50.9716 33.7081 51.0517 33.3952 51.1206C32.8562 51.2397 32.4634 50.9702 32.1936 50.5314C32.0824 50.3517 32.0431 50.1716 32.0754 49.9911C32.1437 49.606 32.5959 49.227 32.9799 49.1623C35.2424 48.7833 37.4975 48.8779 39.6138 49.6516C40.5365 49.989 41.3189 50.4152 41.9611 50.9301C42.1893 51.1131 42.4441 51.3458 42.5828 51.6064C42.759 51.9365 42.4489 52.2345 42.1333 52.2508C41.8445 52.2658 41.5774 52.1964 41.3319 52.0426C41.0109 51.8417 40.7255 51.6924 40.476 51.5949Z" fill="white"/>
<path d="M58.8174 50.419C58.663 50.7627 58.3044 51.1124 57.9252 51.141C57.7435 51.1546 57.5573 51.1353 57.3664 51.0831C56.5959 50.8722 55.8547 50.6919 55.0608 50.7103C53.6559 50.742 52.2921 50.975 50.9695 51.4091C50.5701 51.5406 50.2167 51.6969 49.9093 51.8779C49.5629 52.0827 49.2473 52.2719 48.8422 52.2528C48.4221 52.2324 48.1577 51.8541 48.444 51.4839C48.6607 51.2045 48.9319 50.9516 49.2576 50.7252C51.7688 48.9813 55.0082 48.6676 57.956 49.1602C58.0922 49.1829 58.2165 49.2296 58.329 49.3004C58.7225 49.5481 59.0347 49.9359 58.8174 50.419Z" fill="white"/>
<path d="M43.7641 55.038C45.0286 54.712 46.4618 54.695 47.6381 55.0325C47.6696 55.0416 47.6844 55.0298 47.6826 54.9971C47.5213 52.6081 50.9138 52.0291 52.5991 51.763C54.337 51.4888 56.1842 51.8658 57.7472 52.6292C58.2917 52.8953 58.9359 53.3389 59.1388 53.9166C59.2445 54.2178 59.3123 54.5474 59.3424 54.9053C59.4496 56.2008 59.1648 57.6413 58.5807 58.7797C57.6735 60.5475 56.2386 61.6064 54.2762 61.9566C53.7452 62.0515 53.1841 62.0047 52.593 61.8165C51.336 61.4164 50.2928 60.3869 49.4997 59.2934C49.0124 58.6207 48.5725 57.8702 48.1799 57.0418C48.0232 56.7107 47.8898 56.3786 47.7796 56.0457C47.7725 56.0241 47.7609 56.0042 47.7456 55.9874C47.7303 55.9707 47.7116 55.9573 47.6907 55.9484C47.5131 55.8717 47.3244 55.8218 47.1244 55.7987C46.3037 55.7048 45.4334 55.6971 44.5135 55.7756C44.3317 55.7912 43.6554 55.8606 43.5899 56.0641C43.4683 56.4378 43.2781 56.8835 43.0194 57.4011C42.0022 59.4363 40.0157 62.2023 37.3952 61.9879C36.8846 61.9458 36.3622 61.8169 35.828 61.6015C34.464 61.0503 33.4505 60.1013 32.7874 58.7545C32.1507 57.4608 31.9079 56.0985 32.0592 54.6678C32.0888 54.3879 32.1598 54.1094 32.2723 53.8322C32.4806 53.3199 33.0381 52.9456 33.5074 52.6945C34.2242 52.3112 35.0561 52.0257 36.0029 51.8379C36.7906 51.6814 37.6431 51.614 38.4253 51.7161C40.1386 51.9406 43.9232 52.5367 43.7203 55.0012C43.7176 55.0339 43.7322 55.0461 43.7641 55.038Z" fill="white"/>
<path d="M48.2645 92.8002C48.2617 92.8016 48.2593 92.8037 48.2577 92.8063C48.2561 92.8089 48.2552 92.812 48.2552 92.8151C48.2552 92.8183 48.2561 92.8214 48.2577 92.8242C48.2593 92.8269 48.2617 92.8292 48.2645 92.8308L48.9442 93.201C48.9679 93.2141 48.9904 93.2125 49.0118 93.1962C49.4108 92.9016 50.0297 92.5253 50.5175 92.7961C50.8859 93.0016 51.2445 93.2071 51.5934 93.4126C55.4632 95.6966 59.5513 98.1348 63.8578 100.727C63.9434 100.779 64.0174 100.848 64.0798 100.935C64.3838 101.357 64.4112 101.917 64.2083 102.392C63.838 103.257 62.9383 104.958 61.7708 104.781C61.5627 104.75 61.2685 104.634 60.8882 104.434C60.303 104.126 59.7378 103.815 59.1926 103.501C55.5768 101.424 51.9254 99.1167 48.3417 96.8556C48.1486 96.734 48.0183 96.6202 47.9509 96.514C47.6817 96.0928 47.6291 95.5764 47.8068 95.1014C47.8168 95.0742 47.8093 95.0533 47.7842 95.0388L46.073 94.057C46.0511 94.0443 46.0292 94.0438 46.0074 94.0556L43.0036 95.6512C42.9799 95.6639 42.971 95.6834 42.977 95.7097C43.0924 96.2412 42.9565 96.8325 42.4776 97.1305C41.5055 97.7354 40.4828 98.2934 39.4451 98.8534C36.5668 100.406 33.0708 102.257 28.9569 104.408C28.6515 104.567 28.1378 104.445 27.8536 104.308C27.0455 103.922 26.4942 102.997 26.2578 102.155C26.0706 101.49 26.1765 100.935 26.5755 100.49C26.7207 100.328 27.009 100.133 27.4403 99.906C31.5234 97.7524 35.6421 95.5893 39.8338 93.3942C40.2241 93.1901 40.5013 93.083 40.6652 93.073C41.1694 93.0424 41.5027 93.2683 41.7883 93.6643C41.802 93.6834 41.8193 93.6875 41.8402 93.6766L43.8343 92.6825C43.836 92.6815 43.8375 92.6801 43.8385 92.6784C43.8396 92.6767 43.8401 92.6748 43.8402 92.6728C43.8403 92.6708 43.8398 92.6688 43.8389 92.6671C43.838 92.6653 43.8366 92.6638 43.835 92.6627L34.6748 87.1206C34.6622 87.1128 34.6478 87.1083 34.6329 87.1073C34.618 87.1064 34.6031 87.1091 34.5894 87.1151C33.04 87.7888 31.5221 88.434 30.0356 89.051C29.4201 89.3061 28.6611 89.2177 28.0251 89.0476C27.8015 88.9877 27.5435 88.8788 27.2511 88.721C24.1408 87.0423 21.1554 85.3494 18.0779 83.6095C17.7167 83.4054 17.4726 83.2276 17.3456 83.0761C16.8189 82.448 16.7997 81.5947 17.0095 80.8272C17.0741 80.59 17.2297 80.2448 17.476 79.7916C18.6927 77.5557 19.8568 75.4756 21.1213 73.3587C21.4087 72.877 21.6589 72.5397 21.872 72.3469C22.4227 71.8482 23.1885 71.5828 23.9256 71.6835C24.12 71.7103 24.3284 71.7812 24.5506 71.8965C24.9059 72.0815 25.2381 72.2678 25.5473 72.4551C28.8446 74.4565 31.834 76.3481 34.5156 78.13C35.045 78.4817 35.2384 79.2091 35.3197 79.8072C35.5647 81.6204 35.7885 83.4451 35.9912 85.2813C35.9926 85.2947 35.9972 85.3075 36.0044 85.3188C36.0116 85.3302 36.0214 85.3397 36.0328 85.3467L46.0784 91.4985C46.0884 91.5047 46.0998 91.5082 46.1115 91.5087C46.1233 91.5092 46.1349 91.5066 46.1454 91.5012L58.5116 85.0037C58.5207 84.9991 58.5278 84.9912 58.5315 84.9815C58.5352 84.9718 58.5351 84.9611 58.5314 84.9513C58.0031 83.5973 57.7606 82.257 57.8038 80.9306C57.8988 78.0088 59.5083 75.9219 62.1547 74.8087C65.3621 73.4594 68.775 74.8162 70.9228 77.3338C72.1047 78.7192 72.8732 80.2937 73.2284 82.0574C73.7736 84.7642 72.8595 87.4288 70.694 89.1483C68.8748 90.5928 66.5917 90.9773 64.3708 90.3574C62.4212 89.8131 60.7529 88.5788 59.4673 87.0008C59.4518 86.9818 59.4333 86.9779 59.4119 86.9893L48.2645 92.8002ZM24.0547 73.9235C23.454 74.2456 23.2288 74.7359 23.3791 75.3946C23.4023 75.4971 23.454 75.572 23.5341 75.6191C26.2867 77.2395 29.0587 78.8741 31.85 80.5231C32.1328 80.6898 32.3917 80.7803 32.6855 80.6428C33.1944 80.404 33.618 79.6882 33.2784 79.1635C33.1933 79.032 33.0207 78.8882 32.7606 78.7321C30.0654 77.1132 27.3224 75.4896 24.5315 73.8616C24.3894 73.7786 24.1893 73.8514 24.0547 73.9235ZM22.2027 77.0957C21.4724 77.2889 21.0584 77.9394 21.2695 78.6811C21.2959 78.7746 21.349 78.8446 21.4287 78.8914C24.246 80.5512 27.0375 82.1974 29.8033 83.83C29.9317 83.9057 30.0624 83.9522 30.1954 83.9695C30.7535 84.0436 31.2823 83.3571 31.2796 82.8597C31.2773 82.5467 31.1375 82.306 30.8601 82.1377C28.4035 80.6462 25.5861 78.9751 22.4076 77.1243C22.343 77.0866 22.2746 77.0771 22.2027 77.0957ZM20.2872 80.6333C19.5576 80.8306 19.1368 81.4886 19.3615 82.2323C19.3875 82.3185 19.4376 82.3836 19.5118 82.4276C22.2407 84.0339 25.0325 85.6799 27.8871 87.3655C27.9982 87.4309 28.1125 87.4755 28.23 87.4996C28.7151 87.5996 29.1611 87.1287 29.306 86.7144C29.5177 86.106 29.1946 85.8216 28.7007 85.5222C25.9244 83.8395 23.1229 82.1949 20.4901 80.6591C20.4272 80.6224 20.3596 80.6138 20.2872 80.6333Z" fill="white"/>
</svg>
